<svg width="20" height="20" viewBox="0 0 20 20" fill="none" xmlns="http://www.w3.org/2000/svg">
<g clip-path="url(#clip0_418_80)">
<path d="M8.28086 12.9166C8.20647 12.6283 8.05615 12.3651 7.84555 12.1545C7.63494 11.9439 7.37176 11.7935 7.08336 11.7191L1.97086 10.4008C1.88364 10.3761 1.80687 10.3235 1.75221 10.2512C1.69754 10.1788 1.66797 10.0907 1.66797 9.99998C1.66797 9.90931 1.69754 9.82112 1.75221 9.74878C1.80687 9.67644 1.88364 9.62391 1.97086 9.59915L7.08336 8.27998C7.37166 8.20565 7.63477 8.05546 7.84537 7.84502C8.05596 7.63457 8.20634 7.37156 8.28086 7.08332L9.5992 1.97082C9.6237 1.88325 9.67618 1.8061 9.74863 1.75115C9.82108 1.69619 9.90951 1.66644 10.0004 1.66644C10.0914 1.66644 10.1798 1.69619 10.2523 1.75115C10.3247 1.8061 10.3772 1.88325 10.4017 1.97082L11.7192 7.08332C11.7936 7.37171 11.9439 7.6349 12.1545 7.8455C12.3651 8.0561 12.6283 8.20642 12.9167 8.28082L18.0292 9.59832C18.1171 9.62257 18.1946 9.67499 18.2499 9.74755C18.3052 9.8201 18.3351 9.90878 18.3351 9.99998C18.3351 10.0912 18.3052 10.1799 18.2499 10.2524C18.1946 10.325 18.1171 10.3774 18.0292 10.4016L12.9167 11.7191C12.6283 11.7935 12.3651 11.9439 12.1545 12.1545C11.9439 12.3651 11.7936 12.6283 11.7192 12.9166L10.4009 18.0291C10.3764 18.1167 10.3239 18.1939 10.2514 18.2488C10.179 18.3038 10.0905 18.3335 9.99961 18.3335C9.90868 18.3335 9.82025 18.3038 9.7478 18.2488C9.67535 18.1939 9.62287 18.1167 9.59836 18.0291L8.28086 12.9166Z" stroke="currentColor" stroke-width="1.66667" stroke-linecap="round" stroke-linejoin="round"/>
<path d="M16.666 2.5V5.83333" stroke="currentColor" stroke-width="1.66667" stroke-linecap="round" stroke-linejoin="round"/>
<path d="M18.3333 4.16669H15" stroke="currentColor" stroke-width="1.66667" stroke-linecap="round" stroke-linejoin="round"/>
<path d="M3.33398 14.1667V15.8334" stroke="currentColor" stroke-width="1.66667" stroke-linecap="round" stroke-linejoin="round"/>
<path d="M4.16667 15H2.5" stroke="currentColor" stroke-width="1.66667" stroke-linecap="round" stroke-linejoin="round"/>
</g>
<defs>
<clipPath id="clip0_418_80">
<rect width="20" height="20" fill="white"/>
</clipPath>
</defs>
</svg>
