<svg width="20" height="20" viewBox="0 0 20 20" fill="none" xmlns="http://www.w3.org/2000/svg">
<path d="M12.4993 1.66669H7.49935C7.03911 1.66669 6.66602 2.03978 6.66602 2.50002V4.16669C6.66602 4.62692 7.03911 5.00002 7.49935 5.00002H12.4993C12.9596 5.00002 13.3327 4.62692 13.3327 4.16669V2.50002C13.3327 2.03978 12.9596 1.66669 12.4993 1.66669Z" stroke="currentColor" stroke-width="1.66667" stroke-linecap="round" stroke-linejoin="round"/>
<path d="M13.334 3.33331H15.0007C15.4427 3.33331 15.8666 3.50891 16.1792 3.82147C16.4917 4.13403 16.6673 4.55795 16.6673 4.99998V16.6666C16.6673 17.1087 16.4917 17.5326 16.1792 17.8452C15.8666 18.1577 15.4427 18.3333 15.0007 18.3333H5.00065C4.55862 18.3333 4.1347 18.1577 3.82214 17.8452C3.50958 17.5326 3.33398 17.1087 3.33398 16.6666V4.99998C3.33398 4.55795 3.50958 4.13403 3.82214 3.82147C4.1347 3.50891 4.55862 3.33331 5.00065 3.33331H6.66732" stroke="currentColor" stroke-width="1.66667" stroke-linecap="round" stroke-linejoin="round"/>
<path d="M10 9.16669H13.3333" stroke="currentColor" stroke-width="1.66667" stroke-linecap="round" stroke-linejoin="round"/>
<path d="M10 13.3333H13.3333" stroke="currentColor" stroke-width="1.66667" stroke-linecap="round" stroke-linejoin="round"/>
<path d="M6.66602 9.16669H6.67435" stroke="currentColor" stroke-width="1.66667" stroke-linecap="round" stroke-linejoin="round"/>
<path d="M6.66602 13.3333H6.67435" stroke="currentColor" stroke-width="1.66667" stroke-linecap="round" stroke-linejoin="round"/>
</svg>
