<svg width="64" height="64" viewBox="0 0 64 64" fill="none" xmlns="http://www.w3.org/2000/svg">
<path d="M57.9467 48L36.6134 10.6666C36.1482 9.84583 35.4737 9.16312 34.6585 8.68813C33.8434 8.21315 32.9168 7.96289 31.9734 7.96289C31.03 7.96289 30.1034 8.21315 29.2883 8.68813C28.4731 9.16312 27.7986 9.84583 27.3334 10.6666L6.00006 48C5.52988 48.8142 5.28333 49.7384 5.28541 50.6786C5.2875 51.6189 5.53813 52.5419 6.01191 53.3541C6.4857 54.1663 7.16578 54.8388 7.98324 55.3035C8.8007 55.7681 9.72648 56.0084 10.6667 56H53.3334C54.2691 55.999 55.1881 55.7519 55.9981 55.2834C56.8081 54.8149 57.4806 54.1415 57.9481 53.3309C58.4155 52.5203 58.6615 51.601 58.6613 50.6652C58.661 49.7295 58.4146 48.8103 57.9467 48Z" stroke="#FB2C36" stroke-width="4" stroke-linecap="round" stroke-linejoin="round"/>
<path d="M32 24V34.6667" stroke="#FB2C36" stroke-width="4" stroke-linecap="round" stroke-linejoin="round"/>
<path d="M32 45.333H32.0267" stroke="#FB2C36" stroke-width="4" stroke-linecap="round" stroke-linejoin="round"/>
</svg>
