<svg width="40" height="40" viewBox="0 0 40 40" fill="none" xmlns="http://www.w3.org/2000/svg">
<path d="M0 20C0 8.95431 8.95431 0 20 0C31.0457 0 40 8.95431 40 20C40 31.0457 31.0457 40 20 40C8.95431 40 0 31.0457 0 20Z" fill="url(#paint0_linear_60_912)"/>
<path d="M25.8337 27.5V25.8333C25.8337 24.9493 25.4825 24.1014 24.8573 23.4763C24.2322 22.8512 23.3844 22.5 22.5003 22.5H17.5003C16.6163 22.5 15.7684 22.8512 15.1433 23.4763C14.5182 24.1014 14.167 24.9493 14.167 25.8333V27.5" stroke="white" stroke-width="1.66667" stroke-linecap="round" stroke-linejoin="round"/>
<path d="M20.0003 19.1667C21.8413 19.1667 23.3337 17.6743 23.3337 15.8333C23.3337 13.9924 21.8413 12.5 20.0003 12.5C18.1594 12.5 16.667 13.9924 16.667 15.8333C16.667 17.6743 18.1594 19.1667 20.0003 19.1667Z" stroke="white" stroke-width="1.66667" stroke-linecap="round" stroke-linejoin="round"/>
<defs>
<linearGradient id="paint0_linear_60_912" x1="40" y1="20" x2="0" y2="20" gradientUnits="userSpaceOnUse">
<stop stop-color="#BFDBFF"/>
<stop offset="1" stop-color="#FFB5F8"/>
</linearGradient>
</defs>
</svg>
