<svg width="88" height="88" viewBox="0 0 88 88" fill="none" xmlns="http://www.w3.org/2000/svg">
<g filter="url(#filter0_dd_144_16032)">
<path d="M12 18C12 9.16344 19.1634 2 28 2H60C68.8366 2 76 9.16344 76 18V50C76 58.8366 68.8366 66 60 66H28C19.1634 66 12 58.8366 12 50V18Z" fill="#414141" shape-rendering="crispEdges"/>
<path d="M47.3337 23.334H40.667L37.3337 27.334H33.3337C32.6264 27.334 31.9481 27.6149 31.448 28.115C30.9479 28.6151 30.667 29.2934 30.667 30.0007V42.0007C30.667 42.7079 30.9479 43.3862 31.448 43.8863C31.9481 44.3864 32.6264 44.6673 33.3337 44.6673H54.667C55.3742 44.6673 56.0525 44.3864 56.5526 43.8863C57.0527 43.3862 57.3337 42.7079 57.3337 42.0007V30.0007C57.3337 29.2934 57.0527 28.6151 56.5526 28.115C56.0525 27.6149 55.3742 27.334 54.667 27.334H50.667L47.3337 23.334Z" stroke="white" stroke-width="2.66667" stroke-linecap="round" stroke-linejoin="round"/>
<path d="M44 39.334C46.2091 39.334 48 37.5431 48 35.334C48 33.1248 46.2091 31.334 44 31.334C41.7909 31.334 40 33.1248 40 35.334C40 37.5431 41.7909 39.334 44 39.334Z" stroke="white" stroke-width="2.66667" stroke-linecap="round" stroke-linejoin="round"/>
</g>
<defs>
<filter id="filter0_dd_144_16032" x="0" y="0" width="88" height="88" filterUnits="userSpaceOnUse" color-interpolation-filters="sRGB">
<feFlood flood-opacity="0" result="BackgroundImageFix"/>
<feColorMatrix in="SourceAlpha" type="matrix" values="0 0 0 0 0 0 0 0 0 0 0 0 0 0 0 0 0 0 127 0" result="hardAlpha"/>
<feMorphology radius="4" operator="erode" in="SourceAlpha" result="effect1_dropShadow_144_16032"/>
<feOffset dy="4"/>
<feGaussianBlur stdDeviation="3"/>
<feComposite in2="hardAlpha" operator="out"/>
<feColorMatrix type="matrix" values="0 0 0 0 0 0 0 0 0 0 0 0 0 0 0 0 0 0 0.1 0"/>
<feBlend mode="normal" in2="BackgroundImageFix" result="effect1_dropShadow_144_16032"/>
<feColorMatrix in="SourceAlpha" type="matrix" values="0 0 0 0 0 0 0 0 0 0 0 0 0 0 0 0 0 0 127 0" result="hardAlpha"/>
<feMorphology radius="3" operator="erode" in="SourceAlpha" result="effect2_dropShadow_144_16032"/>
<feOffset dy="10"/>
<feGaussianBlur stdDeviation="7.5"/>
<feComposite in2="hardAlpha" operator="out"/>
<feColorMatrix type="matrix" values="0 0 0 0 0 0 0 0 0 0 0 0 0 0 0 0 0 0 0.1 0"/>
<feBlend mode="normal" in2="effect1_dropShadow_144_16032" result="effect2_dropShadow_144_16032"/>
<feBlend mode="normal" in="SourceGraphic" in2="effect2_dropShadow_144_16032" result="shape"/>
</filter>
</defs>
</svg>
