<svg width="97" height="30" viewBox="0 0 97 30" fill="none" xmlns="http://www.w3.org/2000/svg">
<g filter="url(#filter0_dd_143_14842)">
<path d="M3 14C3 7.37258 8.37258 2 15 2H81.7188C88.3462 2 93.7188 7.37258 93.7188 14C93.7188 20.6274 88.3462 26 81.7188 26H15C8.37258 26 3 20.6274 3 14Z" fill="white" fill-opacity="0.8" shape-rendering="crispEdges"/>
<g clip-path="url(#clip0_143_14842)">
<path d="M20.797 16.0421C20.7449 15.8403 20.6397 15.656 20.4923 15.5086C20.3449 15.3612 20.1606 15.256 19.9587 15.2039L16.38 14.2811C16.3189 14.2637 16.2652 14.227 16.2269 14.1763C16.1887 14.1257 16.168 14.0639 16.168 14.0005C16.168 13.937 16.1887 13.8753 16.2269 13.8246C16.2652 13.774 16.3189 13.7372 16.38 13.7199L19.9587 12.7965C20.1605 12.7444 20.3447 12.6393 20.4921 12.492C20.6396 12.3447 20.7448 12.1606 20.797 11.9588L21.7198 8.38005C21.737 8.31876 21.7737 8.26475 21.8244 8.22628C21.8751 8.18782 21.9371 8.16699 22.0007 8.16699C22.0644 8.16699 22.1263 8.18782 22.177 8.22628C22.2277 8.26475 22.2644 8.31876 22.2816 8.38005L23.2038 11.9588C23.2559 12.1607 23.3611 12.3449 23.5086 12.4923C23.656 12.6398 23.8402 12.745 24.0421 12.7971L27.6208 13.7193C27.6824 13.7363 27.7366 13.773 27.7753 13.8238C27.814 13.8746 27.8349 13.9366 27.8349 14.0005C27.8349 14.0643 27.814 14.1264 27.7753 14.1772C27.7366 14.228 27.6824 14.2647 27.6208 14.2816L24.0421 15.2039C23.8402 15.256 23.656 15.3612 23.5086 15.5086C23.3611 15.656 23.2559 15.8403 23.2038 16.0421L22.281 19.6209C22.2638 19.6822 22.2271 19.7362 22.1764 19.7747C22.1257 19.8131 22.0638 19.8339 22.0001 19.8339C21.9365 19.8339 21.8746 19.8131 21.8238 19.7747C21.7731 19.7362 21.7364 19.6822 21.7192 19.6209L20.797 16.0421Z" stroke="#9810FA" stroke-width="1.16667" stroke-linecap="round" stroke-linejoin="round"/>
<path d="M26.667 8.75V11.0833" stroke="#9810FA" stroke-width="1.16667" stroke-linecap="round" stroke-linejoin="round"/>
<path d="M27.8333 9.91699H25.5" stroke="#9810FA" stroke-width="1.16667" stroke-linecap="round" stroke-linejoin="round"/>
<path d="M17.333 16.917V18.0837" stroke="#9810FA" stroke-width="1.16667" stroke-linecap="round" stroke-linejoin="round"/>
<path d="M17.9167 17.5H16.75" stroke="#9810FA" stroke-width="1.16667" stroke-linecap="round" stroke-linejoin="round"/>
</g>
<path d="M41.704 15.06H43.3V19.08H41.704V15.06ZM37.492 14.604H47.548V15.9H37.492V14.604ZM41.692 9.948H43.096V10.212C43.096 10.58 43.032 10.94 42.904 11.292C42.784 11.636 42.6 11.96 42.352 12.264C42.104 12.56 41.796 12.832 41.428 13.08C41.06 13.32 40.636 13.524 40.156 13.692C39.676 13.852 39.144 13.968 38.56 14.04L37.996 12.78C38.5 12.724 38.948 12.632 39.34 12.504C39.74 12.376 40.088 12.224 40.384 12.048C40.68 11.872 40.924 11.684 41.116 11.484C41.316 11.276 41.46 11.064 41.548 10.848C41.644 10.624 41.692 10.412 41.692 10.212V9.948ZM41.908 9.948H43.3V10.212C43.3 10.404 43.348 10.612 43.444 10.836C43.548 11.052 43.696 11.264 43.888 11.472C44.08 11.672 44.324 11.864 44.62 12.048C44.916 12.224 45.26 12.376 45.652 12.504C46.052 12.632 46.5 12.724 46.996 12.78L46.444 14.04C45.852 13.976 45.316 13.86 44.836 13.692C44.364 13.516 43.944 13.308 43.576 13.068C43.208 12.828 42.9 12.556 42.652 12.252C42.404 11.94 42.216 11.612 42.088 11.268C41.968 10.924 41.908 10.572 41.908 10.212V9.948ZM38.392 9.216H46.624V10.476H38.392V9.216ZM41.704 7.98H43.3V9.648H41.704V7.98ZM51.0151 10.128H52.3231V10.548C52.3231 11.228 52.2111 11.868 51.9871 12.468C51.7631 13.068 51.4231 13.592 50.9671 14.04C50.5111 14.488 49.9311 14.828 49.2271 15.06L48.4471 13.812C49.0471 13.62 49.5351 13.356 49.9111 13.02C50.2951 12.676 50.5751 12.292 50.7511 11.868C50.9271 11.436 51.0151 10.996 51.0151 10.548V10.128ZM51.3151 10.128H52.6111V10.548C52.6111 10.964 52.6991 11.376 52.8751 11.784C53.0591 12.184 53.3431 12.548 53.7271 12.876C54.1111 13.196 54.5991 13.444 55.1911 13.62L54.4351 14.868C53.7311 14.66 53.1471 14.344 52.6831 13.92C52.2271 13.488 51.8831 12.984 51.6511 12.408C51.4271 11.824 51.3151 11.204 51.3151 10.548V10.128ZM48.8311 9.264H54.8071V10.512H48.8311V9.264ZM51.0151 8.028H52.6111V9.732H51.0151V8.028ZM54.4471 11.184H57.0271V12.48H54.4471V11.184ZM56.2231 7.956H57.8311V16.176H56.2231V7.956ZM50.4871 17.592H58.0831V18.876H50.4871V17.592ZM50.4871 15.492H52.0831V18.432H50.4871V15.492ZM62.5467 16.488H72.6147V17.784H62.5467V16.488ZM66.7827 14.028H68.3667V16.848H66.7827V14.028ZM66.7227 9.396H68.0787V9.804C68.0787 10.268 68.0107 10.712 67.8747 11.136C67.7467 11.56 67.5547 11.956 67.2987 12.324C67.0507 12.692 66.7427 13.02 66.3747 13.308C66.0067 13.596 65.5867 13.844 65.1147 14.052C64.6427 14.26 64.1267 14.416 63.5667 14.52L62.9307 13.248C63.4267 13.168 63.8747 13.048 64.2747 12.888C64.6827 12.728 65.0387 12.536 65.3427 12.312C65.6467 12.088 65.8987 11.84 66.0987 11.568C66.3067 11.296 66.4627 11.012 66.5667 10.716C66.6707 10.42 66.7227 10.116 66.7227 9.804V9.396ZM67.0587 9.396H68.4027V9.804C68.4027 10.116 68.4547 10.42 68.5587 10.716C68.6627 11.004 68.8187 11.284 69.0267 11.556C69.2347 11.82 69.4907 12.064 69.7947 12.288C70.1067 12.504 70.4667 12.692 70.8747 12.852C71.2907 13.012 71.7507 13.128 72.2547 13.2L71.6307 14.46C71.0547 14.356 70.5267 14.204 70.0467 14.004C69.5747 13.804 69.1507 13.56 68.7747 13.272C68.4067 12.984 68.0947 12.664 67.8387 12.312C67.5827 11.952 67.3867 11.56 67.2507 11.136C67.1227 10.712 67.0587 10.268 67.0587 9.804V9.396ZM63.3747 8.796H71.7507V10.068H63.3747V8.796ZM80.7258 7.956H82.3218V14.46H80.7258V7.956ZM81.6978 10.62H83.7978V11.928H81.6978V10.62ZM75.0978 14.892H76.6818V15.72H80.7498V14.892H82.3218V18.948H75.0978V14.892ZM76.6818 16.92V17.7H80.7498V16.92H76.6818ZM73.5858 8.916H80.1138V10.176H73.5858V8.916ZM76.8498 10.464C77.3938 10.464 77.8698 10.548 78.2778 10.716C78.6858 10.876 79.0058 11.104 79.2378 11.4C79.4698 11.696 79.5858 12.04 79.5858 12.432C79.5858 12.824 79.4698 13.168 79.2378 13.464C79.0058 13.76 78.6858 13.992 78.2778 14.16C77.8698 14.32 77.3938 14.4 76.8498 14.4C76.3138 14.4 75.8378 14.32 75.4218 14.16C75.0138 13.992 74.6938 13.76 74.4618 13.464C74.2298 13.168 74.1138 12.824 74.1138 12.432C74.1138 12.04 74.2298 11.696 74.4618 11.4C74.6938 11.104 75.0138 10.876 75.4218 10.716C75.8378 10.548 76.3138 10.464 76.8498 10.464ZM76.8498 11.628C76.4978 11.628 76.2098 11.7 75.9858 11.844C75.7618 11.98 75.6498 12.176 75.6498 12.432C75.6498 12.696 75.7618 12.9 75.9858 13.044C76.2098 13.18 76.4978 13.248 76.8498 13.248C77.2098 13.248 77.4978 13.18 77.7138 13.044C77.9378 12.9 78.0498 12.696 78.0498 12.432C78.0498 12.176 77.9378 11.98 77.7138 11.844C77.4978 11.7 77.2098 11.628 76.8498 11.628ZM76.0578 7.86H77.6418V9.612H76.0578V7.86Z" fill="#9810FA"/>
</g>
<defs>
<filter id="filter0_dd_143_14842" x="0" y="0" width="96.7188" height="30" filterUnits="userSpaceOnUse" color-interpolation-filters="sRGB">
<feFlood flood-opacity="0" result="BackgroundImageFix"/>
<feColorMatrix in="SourceAlpha" type="matrix" values="0 0 0 0 0 0 0 0 0 0 0 0 0 0 0 0 0 0 127 0" result="hardAlpha"/>
<feMorphology radius="1" operator="erode" in="SourceAlpha" result="effect1_dropShadow_143_14842"/>
<feOffset dy="1"/>
<feGaussianBlur stdDeviation="1"/>
<feComposite in2="hardAlpha" operator="out"/>
<feColorMatrix type="matrix" values="0 0 0 0 0 0 0 0 0 0 0 0 0 0 0 0 0 0 0.1 0"/>
<feBlend mode="normal" in2="BackgroundImageFix" result="effect1_dropShadow_143_14842"/>
<feColorMatrix in="SourceAlpha" type="matrix" values="0 0 0 0 0 0 0 0 0 0 0 0 0 0 0 0 0 0 127 0" result="hardAlpha"/>
<feOffset dy="1"/>
<feGaussianBlur stdDeviation="1.5"/>
<feComposite in2="hardAlpha" operator="out"/>
<feColorMatrix type="matrix" values="0 0 0 0 0 0 0 0 0 0 0 0 0 0 0 0 0 0 0.1 0"/>
<feBlend mode="normal" in2="effect1_dropShadow_143_14842" result="effect2_dropShadow_143_14842"/>
<feBlend mode="normal" in="SourceGraphic" in2="effect2_dropShadow_143_14842" result="shape"/>
</filter>
<clipPath id="clip0_143_14842">
<rect width="14" height="14" fill="white" transform="translate(15 7)"/>
</clipPath>
</defs>
</svg>
