<svg width="64" height="64" viewBox="0 0 64 64" fill="none" xmlns="http://www.w3.org/2000/svg">
<path d="M0 16C0 7.16344 7.16344 0 16 0H48C56.8366 0 64 7.16344 64 16V48C64 56.8366 56.8366 64 48 64H16C7.16344 64 0 56.8366 0 48V16Z" fill="#DDDDDD"/>
<path d="M36 44V33.3333C36 32.9797 35.8595 32.6406 35.6095 32.3905C35.3594 32.1405 35.0203 32 34.6667 32H29.3333C28.9797 32 28.6406 32.1405 28.3905 32.3905C28.1405 32.6406 28 32.9797 28 33.3333V44" stroke="#414141" stroke-width="2.66667" stroke-linecap="round" stroke-linejoin="round"/>
<path d="M20 29.3339C19.9999 28.946 20.0844 28.5628 20.2477 28.2109C20.411 27.859 20.6491 27.547 20.9453 27.2966L30.2787 19.2979C30.76 18.8912 31.3698 18.668 32 18.668C32.6302 18.668 33.24 18.8912 33.7213 19.2979L43.0547 27.2966C43.3509 27.547 43.589 27.859 43.7523 28.2109C43.9156 28.5628 44.0001 28.946 44 29.3339V41.3339C44 42.0412 43.719 42.7195 43.219 43.2196C42.7189 43.7197 42.0406 44.0006 41.3333 44.0006H22.6667C21.9594 44.0006 21.2811 43.7197 20.781 43.2196C20.281 42.7195 20 42.0412 20 41.3339V29.3339Z" stroke="#414141" stroke-width="2.66667" stroke-linecap="round" stroke-linejoin="round"/>
</svg>
