<svg width="65" height="65" viewBox="0 0 65 65" fill="none" xmlns="http://www.w3.org/2000/svg">
<path d="M0 16.0842C0 7.20114 7.20114 0 16.0842 0H48.2526C57.1356 0 64.3368 7.20114 64.3368 16.0842V48.2526C64.3368 57.1356 57.1356 64.3368 48.2526 64.3368H16.0842C7.20114 64.3368 0 57.1356 0 48.2526V16.0842Z" fill="#414141"/>
<path d="M41.5511 34.8492C43.5482 32.8923 45.5721 30.5467 45.5721 27.4773C45.5721 25.5221 44.7954 23.647 43.4129 22.2645C42.0304 20.882 40.1554 20.1053 38.2002 20.1053C35.8412 20.1053 34.1792 20.7755 32.1686 22.786C30.1581 20.7755 28.4961 20.1053 26.1371 20.1053C24.1819 20.1053 22.3068 20.882 20.9243 22.2645C19.5418 23.647 18.7651 25.5221 18.7651 27.4773C18.7651 30.5601 20.7757 32.9057 22.7862 34.8492L32.1686 44.2316L41.5511 34.8492Z" stroke="white" stroke-width="2.6807" stroke-linecap="round" stroke-linejoin="round"/>
</svg>
