<svg width="65" height="65" viewBox="0 0 65 65" fill="none" xmlns="http://www.w3.org/2000/svg">
<path d="M0 16.0842C0 7.20114 7.20114 0 16.0842 0H48.2526C57.1356 0 64.3368 7.20114 64.3368 16.0842V48.2526C64.3368 57.1356 57.1356 64.3368 48.2526 64.3368H16.0842C7.20114 64.3368 0 57.1356 0 48.2526V16.0842Z" fill="#414141"/>
<path d="M29.4005 36.8596C29.2808 36.3957 29.039 35.9724 28.7003 35.6337C28.3616 35.2949 27.9382 35.0532 27.4744 34.9335L19.2513 32.8131C19.1111 32.7732 18.9876 32.6887 18.8997 32.5724C18.8117 32.456 18.7642 32.3142 18.7642 32.1684C18.7642 32.0225 18.8117 31.8807 18.8997 31.7643C18.9876 31.648 19.1111 31.5635 19.2513 31.5236L27.4744 29.4019C27.9381 29.2823 28.3613 29.0407 28.7 28.7023C29.0387 28.3638 29.2806 27.9407 29.4005 27.4771L31.5209 19.2541C31.5603 19.1132 31.6447 18.9892 31.7613 18.9008C31.8778 18.8124 32.02 18.7645 32.1663 18.7645C32.3125 18.7645 32.4548 18.8124 32.5713 18.9008C32.6878 18.9892 32.7722 19.1132 32.8117 19.2541L34.9308 27.4771C35.0504 27.941 35.2922 28.3643 35.6309 28.703C35.9697 29.0418 36.393 29.2836 36.8568 29.4032L45.0799 31.5223C45.2213 31.5613 45.346 31.6456 45.4349 31.7623C45.5237 31.879 45.5719 32.0217 45.5719 32.1684C45.5719 32.315 45.5237 32.4577 45.4349 32.5744C45.346 32.6911 45.2213 32.7754 45.0799 32.8144L36.8568 34.9335C36.393 35.0532 35.9697 35.2949 35.6309 35.6337C35.2922 35.9724 35.0504 36.3957 34.9308 36.8596L32.8103 45.0826C32.7709 45.2235 32.6865 45.3476 32.57 45.4359C32.4534 45.5243 32.3112 45.5722 32.1649 45.5722C32.0187 45.5722 31.8764 45.5243 31.7599 45.4359C31.6434 45.3476 31.559 45.2235 31.5196 45.0826L29.4005 36.8596Z" stroke="white" stroke-width="2.6807" stroke-linecap="round" stroke-linejoin="round"/>
<path d="M42.8901 20.1053V25.4667" stroke="white" stroke-width="2.6807" stroke-linecap="round" stroke-linejoin="round"/>
<path d="M45.5699 22.7869H40.2085" stroke="white" stroke-width="2.6807" stroke-linecap="round" stroke-linejoin="round"/>
<path d="M21.4419 38.8699V41.5506" stroke="white" stroke-width="2.6807" stroke-linecap="round" stroke-linejoin="round"/>
<path d="M22.7857 40.2107H20.105" stroke="white" stroke-width="2.6807" stroke-linecap="round" stroke-linejoin="round"/>
</svg>
