<svg width="65" height="65" viewBox="0 0 65 65" fill="none" xmlns="http://www.w3.org/2000/svg">
<path d="M0 16.0842C0 7.20114 7.20114 0 16.0842 0H48.2526C57.1356 0 64.3368 7.20114 64.3368 16.0842V48.2526C64.3368 57.1356 57.1356 64.3368 48.2526 64.3368H16.0842C7.20114 64.3368 0 57.1356 0 48.2526V16.0842Z" fill="#414141"/>
<path d="M41.5501 20.1053H22.7852C21.3047 20.1053 20.1045 21.3055 20.1045 22.786V41.5509C20.1045 43.0314 21.3047 44.2316 22.7852 44.2316H41.5501C43.0306 44.2316 44.2308 43.0314 44.2308 41.5509V22.786C44.2308 21.3055 43.0306 20.1053 41.5501 20.1053Z" stroke="white" stroke-width="2.6807" stroke-linecap="round" stroke-linejoin="round"/>
<path d="M28.1463 30.8297C29.6268 30.8297 30.827 29.6295 30.827 28.149C30.827 26.6685 29.6268 25.4683 28.1463 25.4683C26.6658 25.4683 25.4656 26.6685 25.4656 28.149C25.4656 29.6295 26.6658 30.8297 28.1463 30.8297Z" stroke="white" stroke-width="2.6807" stroke-linecap="round" stroke-linejoin="round"/>
<path d="M44.2319 36.1904L40.0956 32.0541C39.5929 31.5515 38.9112 31.2692 38.2004 31.2692C37.4896 31.2692 36.8078 31.5515 36.3051 32.0541L24.1267 44.2325" stroke="white" stroke-width="2.6807" stroke-linecap="round" stroke-linejoin="round"/>
</svg>
