<svg width="40" height="40" viewBox="0 0 40 40" fill="none" xmlns="http://www.w3.org/2000/svg">
<path d="M0 20C0 8.95431 8.95431 0 20 0V0C31.0457 0 40 8.95431 40 20V20C40 31.0457 31.0457 40 20 40V40C8.95431 40 0 31.0457 0 20V20Z" fill="url(#paint0_radial_465_16)"/>
<path d="M14.8622 25V17.3636H16.6619V25H14.8622ZM15.767 16.2798C15.482 16.2798 15.2367 16.1854 15.0312 15.9964C14.8258 15.8042 14.723 15.5739 14.723 15.3054C14.723 15.0336 14.8258 14.8033 15.0312 14.6143C15.2367 14.4221 15.482 14.326 15.767 14.326C16.0554 14.326 16.3007 14.4221 16.5028 14.6143C16.7083 14.8033 16.8111 15.0336 16.8111 15.3054C16.8111 15.5739 16.7083 15.8042 16.5028 15.9964C16.3007 16.1854 16.0554 16.2798 15.767 16.2798ZM20.1619 20.5256V25H18.3622V17.3636H20.0824V18.6612H20.1719C20.3475 18.2337 20.6276 17.8939 21.0121 17.642C21.3999 17.3902 21.8788 17.2642 22.4489 17.2642C22.9759 17.2642 23.4349 17.3769 23.826 17.6023C24.2204 17.8277 24.5253 18.1541 24.7408 18.5817C24.9595 19.0092 25.0672 19.5279 25.0639 20.1378V25H23.2642V20.4162C23.2642 19.9058 23.1316 19.5064 22.8665 19.218C22.6046 18.9297 22.2417 18.7855 21.7777 18.7855C21.4628 18.7855 21.1828 18.8551 20.9375 18.9943C20.6955 19.1302 20.505 19.3274 20.3658 19.5859C20.2299 19.8445 20.1619 20.1577 20.1619 20.5256Z" fill="black"/>
<defs>
<radialGradient id="paint0_radial_465_16" cx="0" cy="0" r="1" gradientUnits="userSpaceOnUse" gradientTransform="translate(20 20) rotate(45) scale(28.2843 56.5685)">
<stop stop-color="white"/>
<stop offset="0.903846" stop-color="#B4B1B1"/>
<stop offset="1" stop-color="white"/>
</radialGradient>
</defs>
</svg>
