<svg width="40" height="40" viewBox="0 0 40 40" fill="none" xmlns="http://www.w3.org/2000/svg">
<path d="M0 20C0 8.95431 8.95431 0 20 0C31.0457 0 40 8.95431 40 20C40 31.0457 31.0457 40 20 40C8.95431 40 0 31.0457 0 20Z" fill="url(#paint0_linear_63_1692)"/>
<path d="M22.1051 17.3636V18.7557H17.5909V17.3636H22.1051ZM18.7195 25V16.6428C18.7195 16.129 18.8255 15.7015 19.0376 15.3601C19.2531 15.0187 19.5414 14.7635 19.9027 14.5945C20.264 14.4254 20.665 14.3409 21.1058 14.3409C21.4174 14.3409 21.6941 14.3658 21.9361 14.4155C22.178 14.4652 22.357 14.5099 22.473 14.5497L22.1151 15.9418C22.0388 15.9186 21.9427 15.8954 21.8267 15.8722C21.7107 15.8456 21.5814 15.8324 21.4389 15.8324C21.1042 15.8324 20.8672 15.9136 20.728 16.076C20.5921 16.2351 20.5241 16.4638 20.5241 16.7621V25H18.7195Z" fill="#9810FA"/>
<defs>
<linearGradient id="paint0_linear_63_1692" x1="0" y1="0" x2="40" y2="40" gradientUnits="userSpaceOnUse">
<stop stop-color="#F3E8FF"/>
<stop offset="1" stop-color="#FCE7F3"/>
</linearGradient>
</defs>
</svg>
