<svg width="40" height="40" viewBox="0 0 40 40" fill="none" xmlns="http://www.w3.org/2000/svg">
<path d="M0 20C0 8.95431 8.95431 0 20 0V0C31.0457 0 40 8.95431 40 20V20C40 31.0457 31.0457 40 20 40V40C8.95431 40 0 31.0457 0 20V20Z" fill="url(#paint0_radial_465_123)"/>
<path d="M12.0043 25V14.8182H13.8487V19.4964H13.973L17.9453 14.8182H20.1974L16.2599 19.3871L20.2322 25H18.0149L14.9773 20.6349L13.8487 21.9673V25H12.0043ZM23.4464 25.1541C22.9625 25.1541 22.5266 25.0679 22.1388 24.8956C21.7544 24.7199 21.4495 24.4614 21.2241 24.12C21.002 23.7786 20.891 23.3577 20.891 22.8572C20.891 22.4264 20.9705 22.0701 21.1296 21.7884C21.2887 21.5066 21.5058 21.2812 21.7809 21.1122C22.056 20.9432 22.3659 20.8156 22.7106 20.7294C23.0586 20.6399 23.4182 20.5753 23.7894 20.5355C24.2369 20.4891 24.5998 20.4477 24.8782 20.4112C25.1566 20.3714 25.3588 20.3118 25.4847 20.2322C25.614 20.1494 25.6786 20.0218 25.6786 19.8494V19.8196C25.6786 19.4451 25.5676 19.1551 25.3455 18.9496C25.1235 18.7441 24.8036 18.6413 24.386 18.6413C23.9452 18.6413 23.5955 18.7375 23.337 18.9297C23.0818 19.1219 22.9094 19.349 22.82 19.6108L21.1396 19.3722C21.2721 18.9081 21.4909 18.5204 21.7958 18.2088C22.1007 17.8939 22.4736 17.6586 22.9144 17.5028C23.3552 17.3438 23.8424 17.2642 24.3761 17.2642C24.744 17.2642 25.1102 17.3073 25.4748 17.3935C25.8394 17.4796 26.1725 17.6222 26.4741 17.821C26.7757 18.0166 27.0176 18.2834 27.1999 18.6214C27.3855 18.9595 27.4783 19.3821 27.4783 19.8892V25H25.7482V23.951H25.6886C25.5792 24.1631 25.4251 24.362 25.2262 24.5476C25.0307 24.7299 24.7837 24.8774 24.4854 24.9901C24.1905 25.0994 23.8441 25.1541 23.4464 25.1541ZM23.9137 23.8317C24.275 23.8317 24.5882 23.7604 24.8533 23.6179C25.1185 23.4721 25.3223 23.2798 25.4648 23.0412C25.6107 22.8026 25.6836 22.5424 25.6836 22.2607V21.3608C25.6272 21.4072 25.5311 21.4503 25.3952 21.4901C25.2627 21.5298 25.1135 21.5646 24.9478 21.5945C24.7821 21.6243 24.618 21.6508 24.4556 21.674C24.2932 21.6972 24.1523 21.7171 24.033 21.7337C23.7646 21.7701 23.5243 21.8298 23.3121 21.9126C23.1 21.9955 22.9326 22.1115 22.81 22.2607C22.6874 22.4065 22.6261 22.5954 22.6261 22.8274C22.6261 23.1589 22.747 23.4091 22.989 23.5781C23.2309 23.7472 23.5392 23.8317 23.9137 23.8317Z" fill="black"/>
<defs>
<radialGradient id="paint0_radial_465_123" cx="0" cy="0" r="1" gradientUnits="userSpaceOnUse" gradientTransform="translate(20 20) rotate(45) scale(28.2843 56.5685)">
<stop stop-color="white"/>
<stop offset="0.903846" stop-color="#B4B1B1"/>
<stop offset="1" stop-color="white"/>
</radialGradient>
</defs>
</svg>
