<svg width="122" height="32" viewBox="0 0 122 32" fill="none" xmlns="http://www.w3.org/2000/svg">
<path d="M20.9102 29.5078C19.0091 29.5078 17.2188 29.1367 15.5391 28.3945C13.8724 27.6393 12.3424 26.5326 10.9492 25.0742C10.3503 24.4622 9.80339 23.7656 9.30859 22.9844C8.8138 22.1901 8.39062 21.3112 8.03906 20.3477C7.6875 19.3841 7.41406 18.3294 7.21875 17.1836C7.02344 16.0247 6.92578 14.7682 6.92578 13.4141C6.92578 12.4505 7.10156 11.4674 7.45312 10.4648C7.81771 9.44922 8.3125 8.47917 8.9375 7.55469C9.5625 6.61719 10.2982 5.7513 11.1445 4.95703C11.9909 4.14974 12.9023 3.45964 13.8789 2.88672C15.207 2.07943 16.5286 1.52604 17.8438 1.22656C19.1719 0.914062 20.3958 0.757812 21.5156 0.757812C22.0755 0.757812 22.6615 0.803385 23.2734 0.894531C23.8854 0.985677 24.4648 1.10286 25.0117 1.24609C25.5716 1.38932 26.0794 1.54557 26.5352 1.71484C27.0039 1.88411 27.3685 2.04688 27.6289 2.20312C28.2539 2.58073 28.8919 3.04948 29.543 3.60938C30.194 4.16927 30.806 4.77474 31.3789 5.42578C31.9518 6.07682 32.4661 6.7474 32.9219 7.4375C33.3906 8.11458 33.7552 8.75911 34.0156 9.37109C34.4583 10.3867 34.7578 11.4023 34.9141 12.418C35.0703 13.4336 35.1484 14.4883 35.1484 15.582C35.1484 16.7539 35.0247 17.8542 34.7773 18.8828C34.543 19.8984 34.1979 20.8555 33.7422 21.7539C33.2865 22.6523 32.7266 23.4987 32.0625 24.293C31.4115 25.0742 30.6693 25.8229 29.8359 26.5391C29.224 27.0469 28.599 27.4896 27.9609 27.8672C27.3229 28.2318 26.6393 28.5378 25.9102 28.7852C25.194 29.0326 24.4258 29.2148 23.6055 29.332C22.7852 29.4492 21.8867 29.5078 20.9102 29.5078ZM12.0234 15.4258C12.0234 16.0508 12.056 16.6888 12.1211 17.3398C12.1862 17.9779 12.2904 18.6159 12.4336 19.2539C12.5768 19.8789 12.7591 20.4844 12.9805 21.0703C13.2148 21.6562 13.4948 22.2031 13.8203 22.7109C14.237 23.401 14.6992 24.0781 15.207 24.7422C15.7279 25.3932 16.3008 25.9857 16.9258 26.5195C17.5638 27.0404 18.2604 27.4635 19.0156 27.7891C19.7839 28.1016 20.6172 28.2578 21.5156 28.2578C22.362 28.2578 23.1823 28.056 23.9766 27.6523C24.7708 27.2357 25.5065 26.6953 26.1836 26.0312C26.8607 25.3542 27.4661 24.5924 28 23.7461C28.5469 22.8997 28.9896 22.0404 29.3281 21.168C29.3672 21.0378 29.4453 20.8034 29.5625 20.4648C29.6927 20.1133 29.8229 19.6901 29.9531 19.1953C30.0833 18.7005 30.194 18.1406 30.2852 17.5156C30.3893 16.8906 30.4414 16.2266 30.4414 15.5234C30.4414 14.8984 30.3893 14.2214 30.2852 13.4922C30.194 12.763 30.0443 12.0143 29.8359 11.2461C29.6406 10.4648 29.3932 9.68359 29.0938 8.90234C28.7943 8.12109 28.4427 7.3724 28.0391 6.65625C27.6875 6.04427 27.2773 5.44531 26.8086 4.85938C26.3398 4.26042 25.806 3.73307 25.207 3.27734C24.6211 2.80859 23.9701 2.4375 23.2539 2.16406C22.5378 1.8776 21.7565 1.73438 20.9102 1.73438C20.1029 1.73438 19.3346 1.90365 18.6055 2.24219C17.8763 2.58073 17.2122 3.00391 16.6133 3.51172C16.0143 4.00651 15.487 4.54036 15.0312 5.11328C14.5885 5.67318 14.2305 6.1875 13.957 6.65625C13.7487 7.02083 13.5273 7.47656 13.293 8.02344C13.0716 8.57031 12.8633 9.20833 12.668 9.9375C12.4857 10.6667 12.3294 11.4935 12.1992 12.418C12.082 13.3294 12.0234 14.332 12.0234 15.4258ZM38.7539 28.5312C38.7539 28.4531 38.7995 28.3555 38.8906 28.2383C38.9818 28.1081 39.0924 27.9583 39.2227 27.7891C39.3659 27.6068 39.5156 27.4049 39.6719 27.1836C39.8281 26.9622 39.9714 26.7214 40.1016 26.4609L47.6602 13.2188C47.8424 12.9323 47.9922 12.6849 48.1094 12.4766C48.2396 12.2552 48.3047 12.0859 48.3047 11.9688C48.3047 11.7604 48.2331 11.6302 48.0898 11.5781C47.9596 11.526 47.8164 11.5 47.6602 11.5C47.3867 11.5 47.0156 11.513 46.5469 11.5391C46.0781 11.5521 45.5898 11.5781 45.082 11.6172C44.5742 11.6432 44.0859 11.6758 43.6172 11.7148C43.1615 11.7409 42.8099 11.7669 42.5625 11.793C42.276 11.8581 41.9701 11.9167 41.6445 11.9688C41.332 12.0208 41.0651 12.0859 40.8438 12.1641C40.5964 12.2812 40.3424 12.4831 40.082 12.7695C39.8346 13.056 39.5938 13.349 39.3594 13.6484C39.125 13.9479 38.8971 14.2148 38.6758 14.4492C38.4674 14.6706 38.2852 14.7812 38.1289 14.7812C38.0378 14.7812 37.9727 14.7096 37.9336 14.5664C37.9076 14.5534 37.8945 14.4753 37.8945 14.332V14.0391C37.8945 13.974 37.9466 13.8438 38.0508 13.6484C38.1549 13.4401 38.2786 13.2057 38.4219 12.9453C38.5781 12.6849 38.7474 12.4049 38.9297 12.1055C39.125 11.793 39.3073 11.4935 39.4766 11.207C39.6458 10.9206 39.7956 10.6667 39.9258 10.4453C40.056 10.2109 40.1471 10.0352 40.1992 9.91797C40.2122 9.90495 40.2383 9.83333 40.2773 9.70312C40.3294 9.5599 40.388 9.41667 40.4531 9.27344C40.5182 9.11719 40.5964 8.98047 40.6875 8.86328C40.7786 8.73307 40.8763 8.66797 40.9805 8.66797C41.1107 8.66797 41.1953 8.75911 41.2344 8.94141C41.2865 9.1237 41.332 9.32552 41.3711 9.54688C41.4102 9.75521 41.4753 9.95052 41.5664 10.1328C41.6576 10.3021 41.8203 10.3867 42.0547 10.3867H43.3438H44.9258C45.3685 10.3867 45.8372 10.3867 46.332 10.3867C46.8398 10.3737 47.3411 10.3607 47.8359 10.3477C48.3438 10.3216 48.8385 10.2956 49.3203 10.2695C49.8021 10.2435 50.2513 10.2109 50.668 10.1719C50.9414 10.1589 51.2604 10.1328 51.625 10.0938C52.0026 10.0417 52.2956 10.0156 52.5039 10.0156C52.7904 10.0156 52.9336 10.1719 52.9336 10.4844C52.9336 10.6667 52.8555 10.901 52.6992 11.1875C52.543 11.4609 52.3737 11.7474 52.1914 12.0469L43.9102 26.6758C43.793 26.8971 43.7083 27.0859 43.6562 27.2422C43.6042 27.3854 43.5781 27.4961 43.5781 27.5742C43.5781 27.7565 43.6628 27.8672 43.832 27.9062C44.0143 27.9323 44.1771 27.9453 44.3203 27.9453H49.4961C49.8737 27.9453 50.2253 27.8542 50.5508 27.6719C50.8893 27.4896 51.1953 27.2617 51.4688 26.9883C51.7552 26.7018 52.0091 26.3893 52.2305 26.0508C52.4648 25.6992 52.6732 25.3607 52.8555 25.0352C53.0378 24.7096 53.1875 24.4102 53.3047 24.1367C53.4349 23.8633 53.5391 23.6615 53.6172 23.5312C53.6562 23.4401 53.7344 23.3945 53.8516 23.3945C53.9167 23.3945 53.9492 23.4401 53.9492 23.5312C53.9492 23.6484 53.9427 23.8047 53.9297 24C53.9167 24.1823 53.9036 24.3711 53.8906 24.5664C53.8906 24.7617 53.8841 24.944 53.8711 25.1133C53.8581 25.2695 53.8516 25.3737 53.8516 25.4258C53.8516 25.4909 53.8385 25.582 53.8125 25.6992C53.7865 25.8034 53.7604 25.9206 53.7344 26.0508C53.7083 26.168 53.6823 26.2786 53.6562 26.3828C53.6302 26.487 53.6172 26.5586 53.6172 26.5977C53.6172 26.6367 53.6107 26.7344 53.5977 26.8906C53.5846 27.0469 53.5716 27.2161 53.5586 27.3984C53.5586 27.5677 53.5521 27.7305 53.5391 27.8867C53.526 28.0299 53.5195 28.1211 53.5195 28.1602C53.4544 28.4206 53.3828 28.6354 53.3047 28.8047C53.2266 28.9609 53.0247 29.0391 52.6992 29.0391C52.556 29.0391 52.3997 29.0326 52.2305 29.0195C52.0742 29.0065 51.8919 29 51.6836 29H43.1484H41.1172C40.7266 29 40.349 29.0065 39.9844 29.0195C39.6198 29.0326 39.3659 29.0391 39.2227 29.0391C39.0143 29.0391 38.8841 29 38.832 28.9219C38.7799 28.8438 38.7539 28.7135 38.7539 28.5312ZM63.375 19.2344L66.7148 19.0977C67.2357 19.0586 67.6328 18.9349 67.9062 18.7266C68.1797 18.5052 68.3815 18.2448 68.5117 17.9453C68.6549 17.6328 68.7591 17.2943 68.8242 16.9297C68.9023 16.5651 69.013 16.207 69.1562 15.8555C69.1953 15.6992 69.2604 15.6211 69.3516 15.6211C69.5339 15.6211 69.625 15.6667 69.625 15.7578V16.5391C69.625 17.0599 69.599 17.6263 69.5469 18.2383C69.5078 18.8372 69.4883 19.3516 69.4883 19.7812C69.4883 20.1979 69.5208 20.6406 69.5859 21.1094C69.6641 21.5781 69.7031 22.0599 69.7031 22.5547C69.7031 22.6198 69.6966 22.724 69.6836 22.8672C69.6706 23.0104 69.651 23.1602 69.625 23.3164C69.599 23.4727 69.5599 23.6094 69.5078 23.7266C69.4688 23.8438 69.4102 23.9023 69.332 23.9023C69.1888 23.9023 69.0977 23.8372 69.0586 23.707C69.0326 23.5638 69.0065 23.4336 68.9805 23.3164C68.9544 23.1602 68.9089 22.9714 68.8438 22.75C68.7786 22.5286 68.707 22.3073 68.6289 22.0859C68.5508 21.8516 68.4792 21.6432 68.4141 21.4609C68.349 21.2786 68.3034 21.1549 68.2773 21.0898C68.1602 20.8555 67.9323 20.6732 67.5938 20.543C67.2552 20.3997 66.8711 20.2956 66.4414 20.2305C66.0247 20.1523 65.5885 20.1068 65.1328 20.0938C64.6901 20.0677 64.2995 20.0547 63.9609 20.0547H63.375C63.1667 20.0547 63.0365 20.1003 62.9844 20.1914C62.9323 20.2695 62.9062 20.3997 62.9062 20.582V27.4375C62.9062 27.8281 63.0299 28.0755 63.2773 28.1797H69.2148C69.4753 28.1797 69.7422 28.1797 70.0156 28.1797C70.3021 28.1667 70.4909 28.1341 70.582 28.082C70.7773 28.0299 70.9401 27.9193 71.0703 27.75C71.2135 27.5677 71.3307 27.3984 71.4219 27.2422C71.4609 27.1771 71.5326 27.0404 71.6367 26.832C71.7539 26.6237 71.8711 26.4023 71.9883 26.168C72.1185 25.9206 72.2357 25.6927 72.3398 25.4844C72.457 25.276 72.5417 25.1393 72.5938 25.0742C72.6719 24.918 72.8021 24.8398 72.9844 24.8398C73.1016 24.8398 73.1862 24.8854 73.2383 24.9766V27.8867C73.2383 28.0039 73.2253 28.1146 73.1992 28.2188C73.1862 28.3099 73.1667 28.4271 73.1406 28.5703C73.0885 28.7526 73.0234 28.8763 72.9453 28.9414C72.8672 28.9935 72.7174 29.0456 72.4961 29.0977C71.181 29.0977 69.931 29.0911 68.7461 29.0781C67.5742 29.0651 66.3828 29.0521 65.1719 29.0391C63.9609 29.0391 62.6849 29.0326 61.3438 29.0195C60.0026 29.0065 58.5052 29 56.8516 29C56.6302 29 56.5195 28.8893 56.5195 28.668C56.5195 28.5247 56.5911 28.4141 56.7344 28.3359C56.8776 28.2578 57.0078 28.2057 57.125 28.1797C57.2031 28.1797 57.3268 28.1732 57.4961 28.1602C57.6784 28.1471 57.8737 28.1406 58.082 28.1406C58.2904 28.1276 58.4922 28.1146 58.6875 28.1016C58.8828 28.0885 59.0521 28.082 59.1953 28.082C59.5078 28.082 59.6641 27.8346 59.6641 27.3398V12.9258C59.6641 12.7044 59.638 12.431 59.5859 12.1055C59.5469 11.7799 59.4622 11.5065 59.332 11.2852C59.2409 11.2201 59.1953 11.1875 59.1953 11.1875L56.4609 10.9141C56.2135 10.9141 56.0898 10.7904 56.0898 10.543C56.0898 10.4779 56.1029 10.3997 56.1289 10.3086C56.1549 10.2044 56.2396 10.1523 56.3828 10.1523H59.5859C60.8359 10.1523 62.0664 10.1458 63.2773 10.1328C64.4883 10.1198 65.6016 10.1133 66.6172 10.1133H69.3906C69.599 10.1133 69.8138 10.1198 70.0352 10.1328C70.2695 10.1328 70.4909 10.1393 70.6992 10.1523C70.9076 10.1523 71.0964 10.1589 71.2656 10.1719C71.4349 10.1719 71.5651 10.1719 71.6562 10.1719C71.7474 10.1849 71.819 10.2305 71.8711 10.3086C71.9232 10.3867 71.9557 10.4844 71.9688 10.6016C71.9948 10.7057 72.0078 10.8164 72.0078 10.9336C72.0208 11.0378 72.0273 11.1224 72.0273 11.1875V14.3711C72.0273 14.4883 71.9818 14.5469 71.8906 14.5469C71.7474 14.5469 71.6367 14.4557 71.5586 14.2734C71.4935 14.0781 71.3893 13.8503 71.2461 13.5898C71.1289 13.3034 70.9857 13.0169 70.8164 12.7305C70.6471 12.444 70.5234 12.2227 70.4453 12.0664C70.3281 11.8451 70.1458 11.6758 69.8984 11.5586C69.6641 11.4284 69.3971 11.3307 69.0977 11.2656C68.7982 11.1875 68.4922 11.1289 68.1797 11.0898C67.8672 11.0508 67.5938 11.0052 67.3594 10.9531C67.2812 10.9531 67.0794 10.9466 66.7539 10.9336C66.4284 10.9206 66.0573 10.9141 65.6406 10.9141C65.237 10.901 64.8333 10.888 64.4297 10.875C64.0391 10.862 63.7331 10.8555 63.5117 10.8555C63.2383 10.8555 63.069 10.9336 63.0039 11.0898C62.9388 11.2461 62.9062 11.4805 62.9062 11.793V18.7656C62.9062 18.8828 62.9453 18.9935 63.0234 19.0977C63.1146 19.1888 63.2318 19.2344 63.375 19.2344ZM77.5859 29C77.4557 29 77.3125 28.9935 77.1562 28.9805C77 28.9674 76.8503 28.9414 76.707 28.9023C76.5768 28.8503 76.4661 28.7786 76.375 28.6875C76.2839 28.5964 76.2383 28.4727 76.2383 28.3164C76.2383 28.1992 76.2448 28.0951 76.2578 28.0039C76.2839 27.9128 76.3555 27.8411 76.4727 27.7891C76.8893 27.724 77.2344 27.6784 77.5078 27.6523C77.7943 27.6263 78.0352 27.5677 78.2305 27.4766C78.4258 27.3854 78.582 27.2292 78.6992 27.0078C78.8294 26.7734 78.9401 26.4219 79.0312 25.9531C79.0312 24.8464 79.0378 23.707 79.0508 22.5352C79.0768 21.3633 79.1159 20.2305 79.168 19.1367C79.194 18.3424 79.2591 17.5742 79.3633 16.832C79.4805 16.0768 79.5391 15.3021 79.5391 14.5078C79.5391 14.3646 79.5326 14.2604 79.5195 14.1953C79.5065 14.1302 79.4674 14.0065 79.4023 13.8242C79.3633 13.7591 79.2852 13.6419 79.168 13.4727C79.0508 13.2904 78.9206 13.1081 78.7773 12.9258C78.6341 12.7305 78.4909 12.5482 78.3477 12.3789C78.2174 12.1966 78.1198 12.0729 78.0547 12.0078C77.9245 11.8516 77.7357 11.7279 77.4883 11.6367C77.2409 11.5326 76.9935 11.4349 76.7461 11.3438C76.5117 11.2396 76.3034 11.1289 76.1211 11.0117C75.9518 10.8815 75.8672 10.7057 75.8672 10.4844C75.8672 10.3672 75.9062 10.276 75.9844 10.2109C76.0755 10.1328 76.1797 10.0742 76.2969 10.0352C76.4271 9.99609 76.5508 9.97005 76.668 9.95703C76.7982 9.94401 76.9023 9.9375 76.9805 9.9375C77.0065 9.9375 77.0586 9.94401 77.1367 9.95703C77.2148 9.97005 77.2995 9.98958 77.3906 10.0156C77.4818 10.0286 77.5664 10.0417 77.6445 10.0547C77.7227 10.0677 77.7812 10.0742 77.8203 10.0742H79.8906C79.9557 10.1003 80.0599 10.1589 80.2031 10.25C80.3464 10.3281 80.444 10.3932 80.4961 10.4453C81.4857 11.526 82.4557 12.5872 83.4062 13.6289C84.3568 14.6706 85.2943 15.6992 86.2188 16.7148C87.1562 17.7305 88.0872 18.7396 89.0117 19.7422C89.9492 20.7448 90.8932 21.7604 91.8438 22.7891C91.9089 22.8542 91.9674 22.9128 92.0195 22.9648C92.0716 23.0039 92.1237 23.043 92.1758 23.082C92.2279 23.1081 92.2734 23.1211 92.3125 23.1211C92.4297 23.1211 92.5208 23.069 92.5859 22.9648C92.651 22.8477 92.6836 22.776 92.6836 22.75V18.0234V16.3633C92.6836 15.9076 92.6706 15.4453 92.6445 14.9766C92.6315 14.5078 92.6055 14.0716 92.5664 13.668C92.5273 13.2513 92.4753 12.8802 92.4102 12.5547C92.3451 12.2292 92.2669 11.9883 92.1758 11.832C91.9935 11.5326 91.7135 11.3242 91.3359 11.207C90.9583 11.0898 90.5807 11.0052 90.2031 10.9531C89.8255 10.888 89.4935 10.8229 89.207 10.7578C88.9336 10.6927 88.7969 10.569 88.7969 10.3867C88.7969 10.0221 89.0117 9.83984 89.4414 9.83984H96.8438C97.0911 9.83984 97.2148 9.98958 97.2148 10.2891C97.2148 10.4193 97.0716 10.5299 96.7852 10.6211C96.4987 10.6992 96.1732 10.8034 95.8086 10.9336C95.444 11.0638 95.0859 11.2331 94.7344 11.4414C94.3958 11.6497 94.168 11.9362 94.0508 12.3008C93.9076 12.6263 93.8099 12.9779 93.7578 13.3555C93.7057 13.7331 93.6797 14.2539 93.6797 14.918V28.5898C93.6797 28.707 93.6341 28.8047 93.543 28.8828C93.4518 28.9609 93.3802 29 93.3281 29C93.1589 29 92.9701 28.8763 92.7617 28.6289C92.7096 28.5638 92.5404 28.375 92.2539 28.0625C91.9805 27.75 91.6224 27.3529 91.1797 26.8711C90.737 26.3893 90.2292 25.8424 89.6562 25.2305C89.0833 24.6185 88.4844 23.974 87.8594 23.2969C87.2344 22.6198 86.5964 21.9297 85.9453 21.2266C85.2943 20.5234 84.6693 19.8464 84.0703 19.1953C83.4714 18.5443 82.9049 17.9388 82.3711 17.3789C81.8503 16.806 81.4076 16.3177 81.043 15.9141C80.9128 15.8099 80.7956 15.7578 80.6914 15.7578C80.4831 15.7578 80.3529 15.888 80.3008 16.1484C80.2487 16.4089 80.2227 16.6823 80.2227 16.9688C80.2227 17.099 80.2227 17.2943 80.2227 17.5547C80.2357 17.8021 80.2487 18.0951 80.2617 18.4336C80.2747 18.7591 80.2878 19.1107 80.3008 19.4883C80.3268 19.8529 80.3464 20.2109 80.3594 20.5625C80.3724 20.901 80.3789 21.2135 80.3789 21.5C80.3919 21.7865 80.3984 22.0143 80.3984 22.1836V23.1211C80.3984 23.4206 80.3984 23.7591 80.3984 24.1367C80.4115 24.5143 80.431 24.8854 80.457 25.25C80.4961 25.6146 80.5417 25.9466 80.5938 26.2461C80.6589 26.5456 80.75 26.7734 80.8672 26.9297C80.9974 27.138 81.1667 27.2878 81.375 27.3789C81.5833 27.4701 81.8047 27.5352 82.0391 27.5742C82.2734 27.6003 82.5078 27.6198 82.7422 27.6328C82.9896 27.6328 83.2044 27.6523 83.3867 27.6914C83.582 27.7305 83.7383 27.8086 83.8555 27.9258C83.9727 28.0299 84.0312 28.1992 84.0312 28.4336C84.0312 28.5508 84.0182 28.6484 83.9922 28.7266C83.9792 28.7917 83.9076 28.8828 83.7773 29H77.5859ZM103.125 28.6875C103.125 28.4922 103.203 28.3555 103.359 28.2773C103.516 28.1862 103.685 28.1146 103.867 28.0625C103.945 28.0625 104.062 28.056 104.219 28.043C104.388 28.0299 104.564 28.0169 104.746 28.0039C104.928 27.9909 105.098 27.9779 105.254 27.9648C105.41 27.9518 105.521 27.9453 105.586 27.9453C105.846 27.9193 105.977 27.7956 105.977 27.5742V12.2422C105.977 12.2031 105.97 12.138 105.957 12.0469C105.957 11.9557 105.951 11.8581 105.938 11.7539C105.924 11.6497 105.911 11.5456 105.898 11.4414C105.885 11.3372 105.872 11.2656 105.859 11.2266C105.859 11.2005 105.853 11.1615 105.84 11.1094C105.827 11.0573 105.788 11.0182 105.723 10.9922C105.684 10.9922 105.618 10.9922 105.527 10.9922C105.436 10.9792 105.339 10.9727 105.234 10.9727C105.13 10.9727 105.033 10.9727 104.941 10.9727C104.85 10.9596 104.785 10.9531 104.746 10.9531H104.004C103.796 10.9531 103.568 10.9596 103.32 10.9727C103.073 10.9857 102.826 11.0052 102.578 11.0312C102.344 11.0443 102.129 11.0703 101.934 11.1094C101.738 11.1354 101.582 11.1745 101.465 11.2266C101.243 11.3177 101.016 11.5065 100.781 11.793C100.56 12.0664 100.339 12.3594 100.117 12.6719C99.9089 12.9714 99.7005 13.2383 99.4922 13.4727C99.2969 13.707 99.1146 13.8242 98.9453 13.8242C98.6719 13.8242 98.5352 13.681 98.5352 13.3945V13.2969C98.6784 12.8151 98.8216 12.3333 98.9648 11.8516C99.1211 11.3698 99.2578 10.8815 99.375 10.3867C99.401 10.2695 99.4271 10.0872 99.4531 9.83984C99.4922 9.57943 99.5443 9.31901 99.6094 9.05859C99.6745 8.78516 99.7656 8.55078 99.8828 8.35547C100 8.14714 100.156 8.04297 100.352 8.04297C100.508 8.04297 100.632 8.10807 100.723 8.23828C100.814 8.35547 100.892 8.4987 100.957 8.66797C101.035 8.82422 101.12 8.98047 101.211 9.13672C101.302 9.27995 101.426 9.37109 101.582 9.41016C102.103 9.46224 102.533 9.49479 102.871 9.50781C103.21 9.50781 103.555 9.50781 103.906 9.50781H104.727C106.081 9.50781 107.402 9.49479 108.691 9.46875C109.98 9.42969 111.302 9.41016 112.656 9.41016H113.672C113.919 9.41016 114.076 9.31901 114.141 9.13672C114.167 9.09766 114.193 9.03255 114.219 8.94141C114.258 8.83724 114.29 8.72656 114.316 8.60938C114.355 8.49219 114.388 8.38151 114.414 8.27734C114.453 8.16016 114.486 8.08203 114.512 8.04297C114.564 7.96484 114.635 7.91927 114.727 7.90625C114.818 7.89323 114.896 7.88672 114.961 7.88672C115.078 7.88672 115.156 7.89323 115.195 7.90625C115.247 7.91927 115.299 7.96484 115.352 8.04297C115.547 8.34245 115.703 8.67448 115.82 9.03906C115.938 9.39062 116.048 9.75521 116.152 10.1328C116.257 10.4974 116.361 10.862 116.465 11.2266C116.569 11.5911 116.699 11.9297 116.855 12.2422C116.882 12.3073 116.921 12.3854 116.973 12.4766C117.025 12.5547 117.077 12.6393 117.129 12.7305C117.181 12.8086 117.227 12.8802 117.266 12.9453C117.318 13.0104 117.35 13.056 117.363 13.082C117.376 13.1341 117.402 13.2383 117.441 13.3945C117.493 13.5378 117.52 13.6745 117.52 13.8047C117.52 13.8828 117.5 13.9219 117.461 13.9219C117.201 13.9219 116.921 13.8242 116.621 13.6289C116.335 13.4206 116.042 13.1862 115.742 12.9258C115.456 12.6523 115.169 12.3854 114.883 12.125C114.609 11.8516 114.362 11.6432 114.141 11.5C113.997 11.4089 113.789 11.3307 113.516 11.2656C113.242 11.1875 112.949 11.1224 112.637 11.0703C112.324 11.0182 112.025 10.9792 111.738 10.9531C111.452 10.9271 111.23 10.9141 111.074 10.9141H110.703C110.586 10.9141 110.462 10.9206 110.332 10.9336C110.202 10.9466 110.078 10.9727 109.961 11.0117C109.844 11.0508 109.746 11.1094 109.668 11.1875C109.59 11.2656 109.551 11.3698 109.551 11.5V21.7344C109.551 22.3333 109.531 22.9062 109.492 23.4531C109.466 23.987 109.453 24.4818 109.453 24.9375C109.453 25.0938 109.453 25.3086 109.453 25.582C109.466 25.8555 109.479 26.1419 109.492 26.4414C109.505 26.7279 109.518 27.0013 109.531 27.2617C109.557 27.5221 109.583 27.7174 109.609 27.8477H111.953C112.148 27.8477 112.337 27.9193 112.52 28.0625C112.702 28.1927 112.793 28.3685 112.793 28.5898C112.793 28.6549 112.78 28.7396 112.754 28.8438C112.728 28.9479 112.676 29 112.598 29H105.254H104.141H103.398C103.255 29 103.171 28.9805 103.145 28.9414C103.132 28.9023 103.125 28.8177 103.125 28.6875Z" fill="black"/>
</svg>
