<svg width="189" height="29" viewBox="0 0 189 29" fill="none" xmlns="http://www.w3.org/2000/svg">
<path d="M1.25 0.0390625H5.9375C7.22656 0.0390625 8.52214 0.0520833 9.82422 0.078125C11.1393 0.104167 12.3958 0.15625 13.5938 0.234375C14.8047 0.299479 15.918 0.390625 16.9336 0.507812C17.9492 0.625 18.8021 0.77474 19.4922 0.957031C20.5078 1.25651 21.4518 1.72526 22.3242 2.36328C23.2096 3.0013 24.0299 3.75 24.7852 4.60938C25.0846 4.96094 25.4167 5.4362 25.7812 6.03516C26.1589 6.62109 26.5104 7.29818 26.8359 8.06641C27.1745 8.83464 27.4544 9.66797 27.6758 10.5664C27.8971 11.4648 28.0078 12.3958 28.0078 13.3594C28.0078 15.638 27.5781 17.6953 26.7188 19.5312C25.8724 21.3542 24.6419 23.0339 23.0273 24.5703C22.9492 24.6094 22.832 24.6875 22.6758 24.8047C22.5326 24.9219 22.3763 25.0521 22.207 25.1953C22.0378 25.3255 21.875 25.4492 21.7188 25.5664C21.5755 25.6836 21.4714 25.7682 21.4062 25.8203C21.1068 26.0677 20.7357 26.3021 20.293 26.5234C19.8633 26.7448 19.388 26.9466 18.8672 27.1289C18.3464 27.3112 17.7995 27.4805 17.2266 27.6367C16.6667 27.793 16.1133 27.9232 15.5664 28.0273C15.0195 28.1315 14.5052 28.2096 14.0234 28.2617C13.5417 28.3268 13.125 28.3594 12.7734 28.3594C12.2656 28.3594 11.7448 28.3333 11.2109 28.2812C10.6771 28.2422 10.0586 28.2227 9.35547 28.2227H0.625C0.208333 28.2227 0 28.0859 0 27.8125C0 27.6562 0.136719 27.5326 0.410156 27.4414C0.683594 27.3372 1.01562 27.2591 1.40625 27.207C1.79688 27.1419 2.21354 27.0898 2.65625 27.0508C3.09896 26.9987 3.49609 26.9401 3.84766 26.875C4.10807 26.8229 4.30339 26.7513 4.43359 26.6602C4.57682 26.556 4.67448 26.4453 4.72656 26.3281C4.79167 26.0547 4.83073 25.8398 4.84375 25.6836C4.85677 25.5143 4.86328 25.3255 4.86328 25.1172V1.36719C4.82422 1.27604 4.65495 1.19141 4.35547 1.11328C4.06901 1.03516 3.71745 0.963542 3.30078 0.898438C2.89714 0.833333 2.46094 0.768229 1.99219 0.703125C1.52344 0.638021 1.09375 0.572917 0.703125 0.507812C0.494792 0.481771 0.390625 0.416667 0.390625 0.3125C0.390625 0.286458 0.46224 0.221354 0.605469 0.117188C0.657552 0.0911458 0.729167 0.0716146 0.820312 0.0585938C0.924479 0.0455729 1.06771 0.0390625 1.25 0.0390625ZM9.35547 1.46484V12.4414C9.35547 13.2357 9.32943 14.0039 9.27734 14.7461C9.23828 15.4753 9.19271 16.1914 9.14062 16.8945C9.10156 17.5977 9.05599 18.3008 9.00391 19.0039C8.96484 19.694 8.94531 20.4036 8.94531 21.1328C8.94531 22.7734 9.03646 24.0365 9.21875 24.9219C9.41406 25.7943 9.68099 26.4193 10.0195 26.7969C10.1758 27.0052 10.3971 27.1419 10.6836 27.207C10.9831 27.2591 11.25 27.2852 11.4844 27.2852C12.5 27.2852 13.4635 27.1549 14.375 26.8945C15.2865 26.6341 16.1263 26.276 16.8945 25.8203C17.6758 25.3646 18.3724 24.8307 18.9844 24.2188C19.6094 23.6068 20.1367 22.9492 20.5664 22.2461C21.4648 20.8008 22.1354 19.349 22.5781 17.8906C23.0208 16.4193 23.2422 15.0195 23.2422 13.6914C23.2422 12.9622 23.1836 12.2656 23.0664 11.6016C22.9622 10.9375 22.832 10.3255 22.6758 9.76562C22.5195 9.20573 22.3503 8.71094 22.168 8.28125C21.9857 7.85156 21.8229 7.51302 21.6797 7.26562C21.4844 6.91406 21.2109 6.49089 20.8594 5.99609C20.5078 5.48828 20.0521 4.96745 19.4922 4.43359C18.9453 3.88672 18.2747 3.35938 17.4805 2.85156C16.6862 2.33073 15.7422 1.88151 14.6484 1.50391C13.9714 1.25651 13.2943 1.08724 12.6172 0.996094C11.9401 0.904948 11.1979 0.859375 10.3906 0.859375C10.3125 0.859375 10.2083 0.865885 10.0781 0.878906C9.96094 0.891927 9.85026 0.917969 9.74609 0.957031C9.64193 0.996094 9.55078 1.0612 9.47266 1.15234C9.39453 1.23047 9.35547 1.33464 9.35547 1.46484ZM37.9609 18.457L41.3008 18.3203C41.8216 18.2812 42.2188 18.1576 42.4922 17.9492C42.7656 17.7279 42.9674 17.4674 43.0977 17.168C43.2409 16.8555 43.3451 16.5169 43.4102 16.1523C43.4883 15.7878 43.599 15.4297 43.7422 15.0781C43.7812 14.9219 43.8464 14.8438 43.9375 14.8438C44.1198 14.8438 44.2109 14.8893 44.2109 14.9805V15.7617C44.2109 16.2826 44.1849 16.849 44.1328 17.4609C44.0938 18.0599 44.0742 18.5742 44.0742 19.0039C44.0742 19.4206 44.1068 19.8633 44.1719 20.332C44.25 20.8008 44.2891 21.2826 44.2891 21.7773C44.2891 21.8424 44.2826 21.9466 44.2695 22.0898C44.2565 22.2331 44.237 22.3828 44.2109 22.5391C44.1849 22.6953 44.1458 22.832 44.0938 22.9492C44.0547 23.0664 43.9961 23.125 43.918 23.125C43.7747 23.125 43.6836 23.0599 43.6445 22.9297C43.6185 22.7865 43.5924 22.6562 43.5664 22.5391C43.5404 22.3828 43.4948 22.194 43.4297 21.9727C43.3646 21.7513 43.293 21.5299 43.2148 21.3086C43.1367 21.0742 43.0651 20.8659 43 20.6836C42.9349 20.5013 42.8893 20.3776 42.8633 20.3125C42.7461 20.0781 42.5182 19.8958 42.1797 19.7656C41.8411 19.6224 41.457 19.5182 41.0273 19.4531C40.6107 19.375 40.1745 19.3294 39.7188 19.3164C39.276 19.2904 38.8854 19.2773 38.5469 19.2773H37.9609C37.7526 19.2773 37.6224 19.3229 37.5703 19.4141C37.5182 19.4922 37.4922 19.6224 37.4922 19.8047V26.6602C37.4922 27.0508 37.6159 27.2982 37.8633 27.4023H43.8008C44.0612 27.4023 44.3281 27.4023 44.6016 27.4023C44.888 27.3893 45.0768 27.3568 45.168 27.3047C45.3633 27.2526 45.526 27.1419 45.6562 26.9727C45.7995 26.7904 45.9167 26.6211 46.0078 26.4648C46.0469 26.3997 46.1185 26.263 46.2227 26.0547C46.3398 25.8464 46.457 25.625 46.5742 25.3906C46.7044 25.1432 46.8216 24.9154 46.9258 24.707C47.043 24.4987 47.1276 24.362 47.1797 24.2969C47.2578 24.1406 47.388 24.0625 47.5703 24.0625C47.6875 24.0625 47.7721 24.1081 47.8242 24.1992V27.1094C47.8242 27.2266 47.8112 27.3372 47.7852 27.4414C47.7721 27.5326 47.7526 27.6497 47.7266 27.793C47.6745 27.9753 47.6094 28.099 47.5312 28.1641C47.4531 28.2161 47.3034 28.2682 47.082 28.3203C45.7669 28.3203 44.5169 28.3138 43.332 28.3008C42.1602 28.2878 40.9688 28.2747 39.7578 28.2617C38.5469 28.2617 37.2708 28.2552 35.9297 28.2422C34.5885 28.2292 33.0911 28.2227 31.4375 28.2227C31.2161 28.2227 31.1055 28.112 31.1055 27.8906C31.1055 27.7474 31.1771 27.6367 31.3203 27.5586C31.4635 27.4805 31.5938 27.4284 31.7109 27.4023C31.7891 27.4023 31.9128 27.3958 32.082 27.3828C32.2643 27.3698 32.4596 27.3633 32.668 27.3633C32.8763 27.3503 33.0781 27.3372 33.2734 27.3242C33.4688 27.3112 33.638 27.3047 33.7812 27.3047C34.0938 27.3047 34.25 27.0573 34.25 26.5625V12.1484C34.25 11.9271 34.224 11.6536 34.1719 11.3281C34.1328 11.0026 34.0482 10.7292 33.918 10.5078C33.8268 10.4427 33.7812 10.4102 33.7812 10.4102L31.0469 10.1367C30.7995 10.1367 30.6758 10.013 30.6758 9.76562C30.6758 9.70052 30.6888 9.6224 30.7148 9.53125C30.7409 9.42708 30.8255 9.375 30.9688 9.375H34.1719C35.4219 9.375 36.6523 9.36849 37.8633 9.35547C39.0742 9.34245 40.1875 9.33594 41.2031 9.33594H43.9766C44.1849 9.33594 44.3997 9.34245 44.6211 9.35547C44.8555 9.35547 45.0768 9.36198 45.2852 9.375C45.4935 9.375 45.6823 9.38151 45.8516 9.39453C46.0208 9.39453 46.151 9.39453 46.2422 9.39453C46.3333 9.40755 46.4049 9.45312 46.457 9.53125C46.5091 9.60938 46.5417 9.70703 46.5547 9.82422C46.5807 9.92839 46.5938 10.0391 46.5938 10.1562C46.6068 10.2604 46.6133 10.3451 46.6133 10.4102V13.5938C46.6133 13.7109 46.5677 13.7695 46.4766 13.7695C46.3333 13.7695 46.2227 13.6784 46.1445 13.4961C46.0794 13.3008 45.9753 13.0729 45.832 12.8125C45.7148 12.526 45.5716 12.2396 45.4023 11.9531C45.2331 11.6667 45.1094 11.4453 45.0312 11.2891C44.9141 11.0677 44.7318 10.8984 44.4844 10.7812C44.25 10.651 43.9831 10.5534 43.6836 10.4883C43.3841 10.4102 43.0781 10.3516 42.7656 10.3125C42.4531 10.2734 42.1797 10.2279 41.9453 10.1758C41.8672 10.1758 41.6654 10.1693 41.3398 10.1562C41.0143 10.1432 40.6432 10.1367 40.2266 10.1367C39.8229 10.1237 39.4193 10.1107 39.0156 10.0977C38.625 10.0846 38.319 10.0781 38.0977 10.0781C37.8242 10.0781 37.6549 10.1562 37.5898 10.3125C37.5247 10.4688 37.4922 10.7031 37.4922 11.0156V17.9883C37.4922 18.1055 37.5312 18.2161 37.6094 18.3203C37.7005 18.4115 37.8177 18.457 37.9609 18.457ZM57.4062 18.457L60.7461 18.3203C61.2669 18.2812 61.6641 18.1576 61.9375 17.9492C62.2109 17.7279 62.4128 17.4674 62.543 17.168C62.6862 16.8555 62.7904 16.5169 62.8555 16.1523C62.9336 15.7878 63.0443 15.4297 63.1875 15.0781C63.2266 14.9219 63.2917 14.8438 63.3828 14.8438C63.5651 14.8438 63.6562 14.8893 63.6562 14.9805V15.7617C63.6562 16.2826 63.6302 16.849 63.5781 17.4609C63.5391 18.0599 63.5195 18.5742 63.5195 19.0039C63.5195 19.4206 63.5521 19.8633 63.6172 20.332C63.6953 20.8008 63.7344 21.2826 63.7344 21.7773C63.7344 21.8424 63.7279 21.9466 63.7148 22.0898C63.7018 22.2331 63.6823 22.3828 63.6562 22.5391C63.6302 22.6953 63.5911 22.832 63.5391 22.9492C63.5 23.0664 63.4414 23.125 63.3633 23.125C63.2201 23.125 63.1289 23.0599 63.0898 22.9297C63.0638 22.7865 63.0378 22.6562 63.0117 22.5391C62.9857 22.3828 62.9401 22.194 62.875 21.9727C62.8099 21.7513 62.7383 21.5299 62.6602 21.3086C62.582 21.0742 62.5104 20.8659 62.4453 20.6836C62.3802 20.5013 62.3346 20.3776 62.3086 20.3125C62.1914 20.0781 61.9635 19.8958 61.625 19.7656C61.2865 19.6224 60.9023 19.5182 60.4727 19.4531C60.056 19.375 59.6198 19.3294 59.1641 19.3164C58.7214 19.2904 58.3307 19.2773 57.9922 19.2773H57.4062C57.1979 19.2773 57.0677 19.3229 57.0156 19.4141C56.9635 19.4922 56.9375 19.6224 56.9375 19.8047V26.6602C56.9375 27.0508 57.0612 27.2982 57.3086 27.4023H63.2461C63.5065 27.4023 63.7734 27.4023 64.0469 27.4023C64.3333 27.3893 64.5221 27.3568 64.6133 27.3047C64.8086 27.2526 64.9714 27.1419 65.1016 26.9727C65.2448 26.7904 65.362 26.6211 65.4531 26.4648C65.4922 26.3997 65.5638 26.263 65.668 26.0547C65.7852 25.8464 65.9023 25.625 66.0195 25.3906C66.1497 25.1432 66.2669 24.9154 66.3711 24.707C66.4883 24.4987 66.5729 24.362 66.625 24.2969C66.7031 24.1406 66.8333 24.0625 67.0156 24.0625C67.1328 24.0625 67.2174 24.1081 67.2695 24.1992V27.1094C67.2695 27.2266 67.2565 27.3372 67.2305 27.4414C67.2174 27.5326 67.1979 27.6497 67.1719 27.793C67.1198 27.9753 67.0547 28.099 66.9766 28.1641C66.8984 28.2161 66.7487 28.2682 66.5273 28.3203C65.2122 28.3203 63.9622 28.3138 62.7773 28.3008C61.6055 28.2878 60.4141 28.2747 59.2031 28.2617C57.9922 28.2617 56.7161 28.2552 55.375 28.2422C54.0339 28.2292 52.5365 28.2227 50.8828 28.2227C50.6615 28.2227 50.5508 28.112 50.5508 27.8906C50.5508 27.7474 50.6224 27.6367 50.7656 27.5586C50.9089 27.4805 51.0391 27.4284 51.1562 27.4023C51.2344 27.4023 51.3581 27.3958 51.5273 27.3828C51.7096 27.3698 51.9049 27.3633 52.1133 27.3633C52.3216 27.3503 52.5234 27.3372 52.7188 27.3242C52.9141 27.3112 53.0833 27.3047 53.2266 27.3047C53.5391 27.3047 53.6953 27.0573 53.6953 26.5625V12.1484C53.6953 11.9271 53.6693 11.6536 53.6172 11.3281C53.5781 11.0026 53.4935 10.7292 53.3633 10.5078C53.2721 10.4427 53.2266 10.4102 53.2266 10.4102L50.4922 10.1367C50.2448 10.1367 50.1211 10.013 50.1211 9.76562C50.1211 9.70052 50.1341 9.6224 50.1602 9.53125C50.1862 9.42708 50.2708 9.375 50.4141 9.375H53.6172C54.8672 9.375 56.0977 9.36849 57.3086 9.35547C58.5195 9.34245 59.6328 9.33594 60.6484 9.33594H63.4219C63.6302 9.33594 63.8451 9.34245 64.0664 9.35547C64.3008 9.35547 64.5221 9.36198 64.7305 9.375C64.9388 9.375 65.1276 9.38151 65.2969 9.39453C65.4661 9.39453 65.5964 9.39453 65.6875 9.39453C65.7786 9.40755 65.8503 9.45312 65.9023 9.53125C65.9544 9.60938 65.987 9.70703 66 9.82422C66.026 9.92839 66.0391 10.0391 66.0391 10.1562C66.0521 10.2604 66.0586 10.3451 66.0586 10.4102V13.5938C66.0586 13.7109 66.013 13.7695 65.9219 13.7695C65.7786 13.7695 65.668 13.6784 65.5898 13.4961C65.5247 13.3008 65.4206 13.0729 65.2773 12.8125C65.1602 12.526 65.0169 12.2396 64.8477 11.9531C64.6784 11.6667 64.5547 11.4453 64.4766 11.2891C64.3594 11.0677 64.1771 10.8984 63.9297 10.7812C63.6953 10.651 63.4284 10.5534 63.1289 10.4883C62.8294 10.4102 62.5234 10.3516 62.2109 10.3125C61.8984 10.2734 61.625 10.2279 61.3906 10.1758C61.3125 10.1758 61.1107 10.1693 60.7852 10.1562C60.4596 10.1432 60.0885 10.1367 59.6719 10.1367C59.2682 10.1237 58.8646 10.1107 58.4609 10.0977C58.0703 10.0846 57.7643 10.0781 57.543 10.0781C57.2695 10.0781 57.1003 10.1562 57.0352 10.3125C56.9701 10.4688 56.9375 10.7031 56.9375 11.0156V17.9883C56.9375 18.1055 56.9766 18.2161 57.0547 18.3203C57.1458 18.4115 57.263 18.457 57.4062 18.457ZM70.0938 27.9492C70.0938 27.8971 70.1068 27.8255 70.1328 27.7344C70.1719 27.6432 70.25 27.5716 70.3672 27.5195C70.4193 27.4935 70.4714 27.4805 70.5234 27.4805C70.5755 27.4805 70.6276 27.4805 70.6797 27.4805H71.4805C71.6367 27.4805 71.8125 27.474 72.0078 27.4609C72.2031 27.4479 72.3984 27.4414 72.5938 27.4414C72.7109 27.4414 72.776 27.3698 72.7891 27.2266C72.8151 27.0833 72.8281 26.9792 72.8281 26.9141V10.625C72.7891 10.4688 72.6523 10.3646 72.418 10.3125C72.1836 10.2474 71.9102 10.2083 71.5977 10.1953C71.2982 10.1693 70.9922 10.1497 70.6797 10.1367C70.3802 10.1237 70.1393 10.0846 69.957 10.0195C69.8529 9.98047 69.8008 9.8763 69.8008 9.70703C69.8008 9.62891 69.8464 9.5638 69.9375 9.51172C69.9505 9.48568 70.0286 9.46615 70.1719 9.45312C70.3151 9.4401 70.4583 9.43359 70.6016 9.43359H71.5586C72.9128 9.43359 74.1628 9.40755 75.3086 9.35547C76.4674 9.29036 77.5938 9.25781 78.6875 9.25781C79.1953 9.25781 79.6641 9.26432 80.0938 9.27734C80.5365 9.27734 80.9466 9.30339 81.3242 9.35547C81.7148 9.39453 82.0794 9.46615 82.418 9.57031C82.7695 9.67448 83.1146 9.82422 83.4531 10.0195C83.8438 10.2409 84.2083 10.4948 84.5469 10.7812C84.8984 11.0547 85.1979 11.3737 85.4453 11.7383C85.6927 12.1029 85.888 12.513 86.0312 12.9688C86.1745 13.4245 86.2461 13.9388 86.2461 14.5117C86.2461 14.8112 86.2331 15.0781 86.207 15.3125C86.194 15.5339 86.1549 15.7422 86.0898 15.9375C86.0378 16.1328 85.9596 16.3281 85.8555 16.5234C85.7513 16.7057 85.6211 16.9206 85.4648 17.168C85.2044 17.5977 84.9115 17.9688 84.5859 18.2812C84.2604 18.5807 83.8372 18.8411 83.3164 19.0625C82.9388 19.2188 82.5938 19.3424 82.2812 19.4336C81.9818 19.5247 81.6758 19.6029 81.3633 19.668C81.0638 19.7201 80.7513 19.7591 80.4258 19.7852C80.1133 19.7982 79.7552 19.8047 79.3516 19.8047C79 19.8047 78.6354 19.7721 78.2578 19.707C77.8802 19.6419 77.5612 19.6094 77.3008 19.6094C77.1836 19.6094 77.0469 19.6159 76.8906 19.6289C76.7474 19.6289 76.6432 19.6549 76.5781 19.707C76.3828 19.8503 76.2526 20.0065 76.1875 20.1758C76.1354 20.332 76.1094 20.5143 76.1094 20.7227V27.168C76.1094 27.2591 76.181 27.3372 76.3242 27.4023C76.4805 27.4544 76.6042 27.4805 76.6953 27.4805H77.9062C78.1146 27.4805 78.3294 27.5 78.5508 27.5391C78.7721 27.5781 78.9284 27.6237 79.0195 27.6758C79.1758 27.7148 79.2539 27.8385 79.2539 28.0469C79.2539 28.151 79.1888 28.2227 79.0586 28.2617C78.9674 28.3138 78.8503 28.3398 78.707 28.3398C78.5768 28.3529 78.4661 28.3594 78.375 28.3594C78.2708 28.3594 78.0495 28.3529 77.7109 28.3398C77.3854 28.3268 77.0273 28.3073 76.6367 28.2812C76.2461 28.2682 75.875 28.2552 75.5234 28.2422C75.1719 28.2292 74.931 28.2227 74.8008 28.2227H72.4375H70.3086C70.2435 28.2227 70.1914 28.1966 70.1523 28.1445C70.1133 28.0794 70.0938 28.0143 70.0938 27.9492ZM76.207 19.0234C76.4023 19.0495 76.5716 19.0755 76.7148 19.1016C76.8581 19.1146 76.9883 19.1276 77.1055 19.1406C77.2357 19.1406 77.3594 19.1406 77.4766 19.1406C77.6068 19.1406 77.75 19.1406 77.9062 19.1406C78.1797 19.1406 78.4792 19.1406 78.8047 19.1406C79.1302 19.1276 79.3841 19.0885 79.5664 19.0234C79.9701 18.9323 80.3542 18.7305 80.7188 18.418C81.0833 18.1055 81.4023 17.7409 81.6758 17.3242C81.9492 16.9076 82.1641 16.4648 82.3203 15.9961C82.4896 15.5273 82.5742 15.0977 82.5742 14.707C82.5742 14.4206 82.5482 14.0951 82.4961 13.7305C82.444 13.3659 82.3464 13.0469 82.2031 12.7734C81.9297 12.2396 81.6107 11.8034 81.2461 11.4648C80.8815 11.1133 80.4779 10.8398 80.0352 10.6445C79.6055 10.4492 79.1302 10.3125 78.6094 10.2344C78.1016 10.1562 77.5612 10.1172 76.9883 10.1172C76.8451 10.1172 76.6823 10.1237 76.5 10.1367C76.3307 10.1367 76.2331 10.1367 76.207 10.1367L76.0117 10.3906V18.5547C76.0117 18.6068 76.0247 18.6849 76.0508 18.7891C76.0898 18.8932 76.1419 18.9714 76.207 19.0234ZM89.5 7.30469C89.5 6.65365 89.6042 5.99609 89.8125 5.33203C90.0339 4.66797 90.3268 4.04297 90.6914 3.45703C91.056 2.85807 91.4792 2.31771 91.9609 1.83594C92.4557 1.34115 92.9766 0.94401 93.5234 0.644531C94.0443 0.345052 94.5716 0.16276 95.1055 0.0976562C95.6523 0.0325521 96.2383 0 96.8633 0C97.5664 0 98.2565 0.0846354 98.9336 0.253906C99.6107 0.410156 100.268 0.657552 100.906 0.996094C100.958 1.03516 101.056 1.10026 101.199 1.19141C101.342 1.28255 101.499 1.39323 101.668 1.52344C101.85 1.65365 102.033 1.79036 102.215 1.93359C102.397 2.0638 102.56 2.1875 102.703 2.30469C102.755 2.35677 102.801 2.38281 102.84 2.38281C102.853 2.38281 102.885 2.35677 102.938 2.30469C102.977 2.2526 103.022 2.17448 103.074 2.07031C103.139 1.95312 103.204 1.83594 103.27 1.71875C103.335 1.58854 103.393 1.47135 103.445 1.36719C103.51 1.25 103.556 1.17188 103.582 1.13281C103.608 1.06771 103.641 1.00911 103.68 0.957031C103.732 0.904948 103.764 0.878906 103.777 0.878906C103.777 0.865885 103.803 0.859375 103.855 0.859375C103.934 0.859375 103.992 0.891927 104.031 0.957031C104.07 1.00911 104.096 1.07422 104.109 1.15234C104.135 1.23047 104.148 1.3151 104.148 1.40625C104.148 1.48438 104.148 1.54948 104.148 1.60156V1.73828C104.148 1.76432 104.142 1.81641 104.129 1.89453C104.129 1.97266 104.122 2.0638 104.109 2.16797C104.096 2.25911 104.083 2.34375 104.07 2.42188C104.07 2.5 104.064 2.55208 104.051 2.57812V7.40234C104.051 7.50651 104.005 7.57812 103.914 7.61719C103.823 7.65625 103.745 7.67578 103.68 7.67578C103.536 7.67578 103.452 7.64974 103.426 7.59766C103.4 7.53255 103.361 7.42188 103.309 7.26562C103.165 6.92708 103.068 6.58203 103.016 6.23047C102.977 5.86589 102.885 5.49479 102.742 5.11719C102.599 4.6875 102.358 4.22526 102.02 3.73047C101.681 3.22266 101.29 2.75391 100.848 2.32422C100.405 1.89453 99.9427 1.53646 99.4609 1.25C98.9792 0.963542 98.5169 0.820312 98.0742 0.820312C97.2539 0.820312 96.6224 0.878906 96.1797 0.996094C95.5156 1.19141 94.9557 1.51042 94.5 1.95312C94.0573 2.38281 93.6471 2.87109 93.2695 3.41797C93.1654 3.57422 93.0677 3.77604 92.9766 4.02344C92.8854 4.25781 92.8073 4.51172 92.7422 4.78516C92.6901 5.04557 92.6445 5.29948 92.6055 5.54688C92.5794 5.79427 92.5664 5.99609 92.5664 6.15234C92.5664 6.77734 92.6966 7.34375 92.957 7.85156C93.2305 8.35938 93.582 8.8151 94.0117 9.21875C94.4414 9.60938 94.9232 9.96094 95.457 10.2734C96.0039 10.5729 96.5508 10.8333 97.0977 11.0547C97.5664 11.25 98.0482 11.4388 98.543 11.6211C99.0508 11.8034 99.5456 11.9922 100.027 12.1875C100.522 12.3828 100.991 12.5977 101.434 12.832C101.889 13.0664 102.293 13.3333 102.645 13.6328C103.087 13.9844 103.523 14.4206 103.953 14.9414C104.383 15.4492 104.767 16.0091 105.105 16.6211C105.457 17.2201 105.737 17.8451 105.945 18.4961C106.154 19.1471 106.258 19.7852 106.258 20.4102C106.258 21.6211 106.043 22.7148 105.613 23.6914C105.197 24.668 104.611 25.5013 103.855 26.1914C103.113 26.8685 102.234 27.3958 101.219 27.7734C100.203 28.138 99.1094 28.3203 97.9375 28.3203C97.2474 28.3203 96.5768 28.2878 95.9258 28.2227C95.2878 28.1445 94.6758 28.0143 94.0898 27.832C93.5039 27.6497 92.9505 27.3958 92.4297 27.0703C91.9089 26.7448 91.4141 26.3281 90.9453 25.8203C90.8932 25.7552 90.8216 25.7161 90.7305 25.7031C90.6523 25.6901 90.5872 25.6836 90.5352 25.6836C90.3138 25.6836 90.1576 25.7422 90.0664 25.8594C89.9753 25.9766 89.8971 26.1133 89.832 26.2695C89.7799 26.4128 89.7148 26.543 89.6367 26.6602C89.5586 26.7773 89.4219 26.8359 89.2266 26.8359L89.7344 21.4648C89.7604 21.2956 89.7799 21.0938 89.793 20.8594C89.806 20.625 89.8385 20.4688 89.8906 20.3906C89.9297 20.2083 90.0013 20.1172 90.1055 20.1172C90.2617 20.1172 90.3724 20.2148 90.4375 20.4102C90.5156 20.6315 90.5807 20.8529 90.6328 21.0742C90.6849 21.2826 90.7305 21.4909 90.7695 21.6992C90.8086 21.9076 90.8477 22.1029 90.8867 22.2852C90.9388 22.4674 91.0039 22.6302 91.082 22.7734C91.3815 23.3073 91.668 23.7826 91.9414 24.1992C92.2279 24.6159 92.5404 25 92.8789 25.3516C93.2305 25.7031 93.6341 26.0221 94.0898 26.3086C94.5456 26.5951 95.099 26.862 95.75 27.1094C96.1536 27.2526 96.5378 27.3372 96.9023 27.3633C97.2669 27.3763 97.599 27.3828 97.8984 27.3828C98.263 27.3828 98.6276 27.3177 98.9922 27.1875C99.3568 27.0443 99.793 26.8294 100.301 26.543C101.043 26.1003 101.635 25.5729 102.078 24.9609C102.521 24.3359 102.742 23.5547 102.742 22.6172C102.742 21.9531 102.618 21.3346 102.371 20.7617C102.137 20.1888 101.811 19.6549 101.395 19.1602C100.796 18.4961 100.223 17.9818 99.6758 17.6172C99.1289 17.2396 98.5885 16.9401 98.0547 16.7188C97.5339 16.4974 97.013 16.3086 96.4922 16.1523C95.9714 15.9961 95.4375 15.8008 94.8906 15.5664C94.3568 15.332 93.8099 15.0195 93.25 14.6289C92.6901 14.2383 92.1042 13.6914 91.4922 12.9883C90.1641 11.4258 89.5 9.53125 89.5 7.30469ZM123.887 9.90234V14.1992C123.887 14.3555 123.841 14.4987 123.75 14.6289C123.672 14.7461 123.561 14.8047 123.418 14.8047C123.223 14.8047 123.047 14.7135 122.891 14.5312C122.747 14.349 122.617 14.1406 122.5 13.9062C122.383 13.6589 122.272 13.4115 122.168 13.1641C122.077 12.9167 121.986 12.7214 121.895 12.5781C121.751 12.3828 121.615 12.2135 121.484 12.0703C121.367 11.9141 121.237 11.7773 121.094 11.6602C120.951 11.5299 120.794 11.4128 120.625 11.3086C120.456 11.2044 120.267 11.1003 120.059 10.9961C119.746 10.8398 119.388 10.7161 118.984 10.625C118.594 10.5339 118.132 10.4883 117.598 10.4883C117.077 10.4883 116.549 10.6185 116.016 10.8789C115.482 11.1263 115.052 11.4779 114.727 11.9336C114.479 12.2721 114.251 12.6628 114.043 13.1055C113.848 13.5482 113.672 14.0299 113.516 14.5508C113.372 15.0586 113.262 15.5924 113.184 16.1523C113.105 16.6992 113.066 17.2396 113.066 17.7734C113.066 17.9297 113.079 18.2096 113.105 18.6133C113.132 19.0039 113.177 19.4466 113.242 19.9414C113.32 20.4362 113.424 20.944 113.555 21.4648C113.698 21.9857 113.887 22.4479 114.121 22.8516C114.616 23.8281 115.273 24.6289 116.094 25.2539C116.927 25.8789 117.891 26.2044 118.984 26.2305C119.31 26.2305 119.622 26.1914 119.922 26.1133C120.234 26.0352 120.521 25.9375 120.781 25.8203C120.833 25.7943 120.918 25.7422 121.035 25.6641C121.152 25.5859 121.276 25.5013 121.406 25.4102C121.536 25.306 121.66 25.2018 121.777 25.0977C121.908 24.9935 122.005 24.9089 122.07 24.8438C122.24 24.6484 122.396 24.4336 122.539 24.1992C122.682 23.9648 122.799 23.737 122.891 23.5156C122.995 23.2812 123.079 23.0729 123.145 22.8906C123.21 22.6953 123.255 22.5456 123.281 22.4414C123.32 22.2852 123.444 22.207 123.652 22.207C123.717 22.207 123.77 22.2396 123.809 22.3047C123.848 22.3698 123.874 22.4479 123.887 22.5391C123.913 22.6172 123.926 22.6953 123.926 22.7734C123.939 22.8516 123.945 22.9102 123.945 22.9492C123.945 23.7435 123.77 24.4596 123.418 25.0977C123.079 25.7357 122.617 26.2826 122.031 26.7383C121.471 27.194 120.866 27.5586 120.215 27.832C119.564 28.0924 118.874 28.2227 118.145 28.2227C117.246 28.2227 116.419 28.1185 115.664 27.9102C114.922 27.6888 114.245 27.3958 113.633 27.0312C113.034 26.6536 112.5 26.2109 112.031 25.7031C111.576 25.1823 111.178 24.6224 110.84 24.0234C110.423 23.2943 110.091 22.4609 109.844 21.5234C109.609 20.5859 109.492 19.6745 109.492 18.7891C109.492 17.3698 109.811 16.0482 110.449 14.8242C111.087 13.5872 112.018 12.4219 113.242 11.3281C113.971 10.7161 114.707 10.2409 115.449 9.90234C116.204 9.5638 117.057 9.39453 118.008 9.39453C118.385 9.39453 118.737 9.41406 119.062 9.45312C119.401 9.47917 119.74 9.53776 120.078 9.62891C120.43 9.70703 120.794 9.81771 121.172 9.96094C121.549 10.1042 121.973 10.2799 122.441 10.4883C122.454 10.5013 122.493 10.5078 122.559 10.5078C122.715 10.5078 122.832 10.4622 122.91 10.3711C122.988 10.2799 123.053 10.1758 123.105 10.0586C123.171 9.94141 123.236 9.83724 123.301 9.74609C123.366 9.65495 123.47 9.60938 123.613 9.60938C123.665 9.60938 123.724 9.64193 123.789 9.70703C123.854 9.77214 123.887 9.83724 123.887 9.90234ZM134.016 18.457L137.355 18.3203C137.876 18.2812 138.273 18.1576 138.547 17.9492C138.82 17.7279 139.022 17.4674 139.152 17.168C139.296 16.8555 139.4 16.5169 139.465 16.1523C139.543 15.7878 139.654 15.4297 139.797 15.0781C139.836 14.9219 139.901 14.8438 139.992 14.8438C140.174 14.8438 140.266 14.8893 140.266 14.9805V15.7617C140.266 16.2826 140.24 16.849 140.188 17.4609C140.148 18.0599 140.129 18.5742 140.129 19.0039C140.129 19.4206 140.161 19.8633 140.227 20.332C140.305 20.8008 140.344 21.2826 140.344 21.7773C140.344 21.8424 140.337 21.9466 140.324 22.0898C140.311 22.2331 140.292 22.3828 140.266 22.5391C140.24 22.6953 140.201 22.832 140.148 22.9492C140.109 23.0664 140.051 23.125 139.973 23.125C139.829 23.125 139.738 23.0599 139.699 22.9297C139.673 22.7865 139.647 22.6562 139.621 22.5391C139.595 22.3828 139.549 22.194 139.484 21.9727C139.419 21.7513 139.348 21.5299 139.27 21.3086C139.191 21.0742 139.12 20.8659 139.055 20.6836C138.99 20.5013 138.944 20.3776 138.918 20.3125C138.801 20.0781 138.573 19.8958 138.234 19.7656C137.896 19.6224 137.512 19.5182 137.082 19.4531C136.665 19.375 136.229 19.3294 135.773 19.3164C135.331 19.2904 134.94 19.2773 134.602 19.2773H134.016C133.807 19.2773 133.677 19.3229 133.625 19.4141C133.573 19.4922 133.547 19.6224 133.547 19.8047V26.6602C133.547 27.0508 133.671 27.2982 133.918 27.4023H139.855C140.116 27.4023 140.383 27.4023 140.656 27.4023C140.943 27.3893 141.132 27.3568 141.223 27.3047C141.418 27.2526 141.581 27.1419 141.711 26.9727C141.854 26.7904 141.971 26.6211 142.062 26.4648C142.102 26.3997 142.173 26.263 142.277 26.0547C142.395 25.8464 142.512 25.625 142.629 25.3906C142.759 25.1432 142.876 24.9154 142.98 24.707C143.098 24.4987 143.182 24.362 143.234 24.2969C143.312 24.1406 143.443 24.0625 143.625 24.0625C143.742 24.0625 143.827 24.1081 143.879 24.1992V27.1094C143.879 27.2266 143.866 27.3372 143.84 27.4414C143.827 27.5326 143.807 27.6497 143.781 27.793C143.729 27.9753 143.664 28.099 143.586 28.1641C143.508 28.2161 143.358 28.2682 143.137 28.3203C141.822 28.3203 140.572 28.3138 139.387 28.3008C138.215 28.2878 137.023 28.2747 135.812 28.2617C134.602 28.2617 133.326 28.2552 131.984 28.2422C130.643 28.2292 129.146 28.2227 127.492 28.2227C127.271 28.2227 127.16 28.112 127.16 27.8906C127.16 27.7474 127.232 27.6367 127.375 27.5586C127.518 27.4805 127.648 27.4284 127.766 27.4023C127.844 27.4023 127.967 27.3958 128.137 27.3828C128.319 27.3698 128.514 27.3633 128.723 27.3633C128.931 27.3503 129.133 27.3372 129.328 27.3242C129.523 27.3112 129.693 27.3047 129.836 27.3047C130.148 27.3047 130.305 27.0573 130.305 26.5625V12.1484C130.305 11.9271 130.279 11.6536 130.227 11.3281C130.188 11.0026 130.103 10.7292 129.973 10.5078C129.882 10.4427 129.836 10.4102 129.836 10.4102L127.102 10.1367C126.854 10.1367 126.73 10.013 126.73 9.76562C126.73 9.70052 126.743 9.6224 126.77 9.53125C126.796 9.42708 126.88 9.375 127.023 9.375H130.227C131.477 9.375 132.707 9.36849 133.918 9.35547C135.129 9.34245 136.242 9.33594 137.258 9.33594H140.031C140.24 9.33594 140.454 9.34245 140.676 9.35547C140.91 9.35547 141.132 9.36198 141.34 9.375C141.548 9.375 141.737 9.38151 141.906 9.39453C142.076 9.39453 142.206 9.39453 142.297 9.39453C142.388 9.40755 142.46 9.45312 142.512 9.53125C142.564 9.60938 142.596 9.70703 142.609 9.82422C142.635 9.92839 142.648 10.0391 142.648 10.1562C142.661 10.2604 142.668 10.3451 142.668 10.4102V13.5938C142.668 13.7109 142.622 13.7695 142.531 13.7695C142.388 13.7695 142.277 13.6784 142.199 13.4961C142.134 13.3008 142.03 13.0729 141.887 12.8125C141.77 12.526 141.626 12.2396 141.457 11.9531C141.288 11.6667 141.164 11.4453 141.086 11.2891C140.969 11.0677 140.786 10.8984 140.539 10.7812C140.305 10.651 140.038 10.5534 139.738 10.4883C139.439 10.4102 139.133 10.3516 138.82 10.3125C138.508 10.2734 138.234 10.2279 138 10.1758C137.922 10.1758 137.72 10.1693 137.395 10.1562C137.069 10.1432 136.698 10.1367 136.281 10.1367C135.878 10.1237 135.474 10.1107 135.07 10.0977C134.68 10.0846 134.374 10.0781 134.152 10.0781C133.879 10.0781 133.71 10.1562 133.645 10.3125C133.579 10.4688 133.547 10.7031 133.547 11.0156V17.9883C133.547 18.1055 133.586 18.2161 133.664 18.3203C133.755 18.4115 133.872 18.457 134.016 18.457ZM148.227 28.2227C148.096 28.2227 147.953 28.2161 147.797 28.2031C147.641 28.1901 147.491 28.1641 147.348 28.125C147.217 28.0729 147.107 28.0013 147.016 27.9102C146.924 27.819 146.879 27.6953 146.879 27.5391C146.879 27.4219 146.885 27.3177 146.898 27.2266C146.924 27.1354 146.996 27.0638 147.113 27.0117C147.53 26.9466 147.875 26.901 148.148 26.875C148.435 26.849 148.676 26.7904 148.871 26.6992C149.066 26.6081 149.223 26.4518 149.34 26.2305C149.47 25.9961 149.581 25.6445 149.672 25.1758C149.672 24.069 149.678 22.9297 149.691 21.7578C149.717 20.5859 149.757 19.4531 149.809 18.3594C149.835 17.5651 149.9 16.7969 150.004 16.0547C150.121 15.2995 150.18 14.5247 150.18 13.7305C150.18 13.5872 150.173 13.4831 150.16 13.418C150.147 13.3529 150.108 13.2292 150.043 13.0469C150.004 12.9818 149.926 12.8646 149.809 12.6953C149.691 12.513 149.561 12.3307 149.418 12.1484C149.275 11.9531 149.132 11.7708 148.988 11.6016C148.858 11.4193 148.76 11.2956 148.695 11.2305C148.565 11.0742 148.376 10.9505 148.129 10.8594C147.882 10.7552 147.634 10.6576 147.387 10.5664C147.152 10.4622 146.944 10.3516 146.762 10.2344C146.592 10.1042 146.508 9.92839 146.508 9.70703C146.508 9.58984 146.547 9.4987 146.625 9.43359C146.716 9.35547 146.82 9.29688 146.938 9.25781C147.068 9.21875 147.191 9.19271 147.309 9.17969C147.439 9.16667 147.543 9.16016 147.621 9.16016C147.647 9.16016 147.699 9.16667 147.777 9.17969C147.855 9.19271 147.94 9.21224 148.031 9.23828C148.122 9.2513 148.207 9.26432 148.285 9.27734C148.363 9.29036 148.422 9.29688 148.461 9.29688H150.531C150.596 9.32292 150.701 9.38151 150.844 9.47266C150.987 9.55078 151.085 9.61589 151.137 9.66797C152.126 10.7487 153.096 11.8099 154.047 12.8516C154.997 13.8932 155.935 14.9219 156.859 15.9375C157.797 16.9531 158.728 17.9622 159.652 18.9648C160.59 19.9674 161.534 20.9831 162.484 22.0117C162.549 22.0768 162.608 22.1354 162.66 22.1875C162.712 22.2266 162.764 22.2656 162.816 22.3047C162.868 22.3307 162.914 22.3438 162.953 22.3438C163.07 22.3438 163.161 22.2917 163.227 22.1875C163.292 22.0703 163.324 21.9987 163.324 21.9727V17.2461V15.5859C163.324 15.1302 163.311 14.668 163.285 14.1992C163.272 13.7305 163.246 13.2943 163.207 12.8906C163.168 12.474 163.116 12.1029 163.051 11.7773C162.986 11.4518 162.908 11.2109 162.816 11.0547C162.634 10.7552 162.354 10.5469 161.977 10.4297C161.599 10.3125 161.221 10.2279 160.844 10.1758C160.466 10.1107 160.134 10.0456 159.848 9.98047C159.574 9.91536 159.438 9.79167 159.438 9.60938C159.438 9.24479 159.652 9.0625 160.082 9.0625H167.484C167.732 9.0625 167.855 9.21224 167.855 9.51172C167.855 9.64193 167.712 9.7526 167.426 9.84375C167.139 9.92188 166.814 10.026 166.449 10.1562C166.085 10.2865 165.727 10.4557 165.375 10.6641C165.036 10.8724 164.809 11.1589 164.691 11.5234C164.548 11.849 164.451 12.2005 164.398 12.5781C164.346 12.9557 164.32 13.4766 164.32 14.1406V27.8125C164.32 27.9297 164.275 28.0273 164.184 28.1055C164.092 28.1836 164.021 28.2227 163.969 28.2227C163.799 28.2227 163.611 28.099 163.402 27.8516C163.35 27.7865 163.181 27.5977 162.895 27.2852C162.621 26.9727 162.263 26.5755 161.82 26.0938C161.378 25.612 160.87 25.0651 160.297 24.4531C159.724 23.8411 159.125 23.1966 158.5 22.5195C157.875 21.8424 157.237 21.1523 156.586 20.4492C155.935 19.7461 155.31 19.069 154.711 18.418C154.112 17.7669 153.546 17.1615 153.012 16.6016C152.491 16.0286 152.048 15.5404 151.684 15.1367C151.553 15.0326 151.436 14.9805 151.332 14.9805C151.124 14.9805 150.993 15.1107 150.941 15.3711C150.889 15.6315 150.863 15.9049 150.863 16.1914C150.863 16.3216 150.863 16.5169 150.863 16.7773C150.876 17.0247 150.889 17.3177 150.902 17.6562C150.915 17.9818 150.928 18.3333 150.941 18.7109C150.967 19.0755 150.987 19.4336 151 19.7852C151.013 20.1237 151.02 20.4362 151.02 20.7227C151.033 21.0091 151.039 21.237 151.039 21.4062V22.3438C151.039 22.6432 151.039 22.9818 151.039 23.3594C151.052 23.737 151.072 24.1081 151.098 24.4727C151.137 24.8372 151.182 25.1693 151.234 25.4688C151.299 25.7682 151.391 25.9961 151.508 26.1523C151.638 26.3607 151.807 26.5104 152.016 26.6016C152.224 26.6927 152.445 26.7578 152.68 26.7969C152.914 26.8229 153.148 26.8424 153.383 26.8555C153.63 26.8555 153.845 26.875 154.027 26.9141C154.223 26.9531 154.379 27.0312 154.496 27.1484C154.613 27.2526 154.672 27.4219 154.672 27.6562C154.672 27.7734 154.659 27.8711 154.633 27.9492C154.62 28.0143 154.548 28.1055 154.418 28.2227H148.227ZM173.766 27.9102C173.766 27.7148 173.844 27.5781 174 27.5C174.156 27.4089 174.326 27.3372 174.508 27.2852C174.586 27.2852 174.703 27.2786 174.859 27.2656C175.029 27.2526 175.204 27.2396 175.387 27.2266C175.569 27.2135 175.738 27.2005 175.895 27.1875C176.051 27.1745 176.161 27.168 176.227 27.168C176.487 27.1419 176.617 27.0182 176.617 26.7969V11.4648C176.617 11.4258 176.611 11.3607 176.598 11.2695C176.598 11.1784 176.591 11.0807 176.578 10.9766C176.565 10.8724 176.552 10.7682 176.539 10.6641C176.526 10.5599 176.513 10.4883 176.5 10.4492C176.5 10.4232 176.493 10.3841 176.48 10.332C176.467 10.2799 176.428 10.2409 176.363 10.2148C176.324 10.2148 176.259 10.2148 176.168 10.2148C176.077 10.2018 175.979 10.1953 175.875 10.1953C175.771 10.1953 175.673 10.1953 175.582 10.1953C175.491 10.1823 175.426 10.1758 175.387 10.1758H174.645C174.436 10.1758 174.208 10.1823 173.961 10.1953C173.714 10.2083 173.466 10.2279 173.219 10.2539C172.984 10.2669 172.77 10.293 172.574 10.332C172.379 10.3581 172.223 10.3971 172.105 10.4492C171.884 10.5404 171.656 10.7292 171.422 11.0156C171.201 11.2891 170.979 11.582 170.758 11.8945C170.549 12.194 170.341 12.4609 170.133 12.6953C169.938 12.9297 169.755 13.0469 169.586 13.0469C169.312 13.0469 169.176 12.9036 169.176 12.6172V12.5195C169.319 12.0378 169.462 11.556 169.605 11.0742C169.762 10.5924 169.898 10.1042 170.016 9.60938C170.042 9.49219 170.068 9.3099 170.094 9.0625C170.133 8.80208 170.185 8.54167 170.25 8.28125C170.315 8.00781 170.406 7.77344 170.523 7.57812C170.641 7.36979 170.797 7.26562 170.992 7.26562C171.148 7.26562 171.272 7.33073 171.363 7.46094C171.454 7.57812 171.533 7.72135 171.598 7.89062C171.676 8.04688 171.76 8.20312 171.852 8.35938C171.943 8.5026 172.066 8.59375 172.223 8.63281C172.743 8.6849 173.173 8.71745 173.512 8.73047C173.85 8.73047 174.195 8.73047 174.547 8.73047H175.367C176.721 8.73047 178.043 8.71745 179.332 8.69141C180.621 8.65234 181.943 8.63281 183.297 8.63281H184.312C184.56 8.63281 184.716 8.54167 184.781 8.35938C184.807 8.32031 184.833 8.25521 184.859 8.16406C184.898 8.0599 184.931 7.94922 184.957 7.83203C184.996 7.71484 185.029 7.60417 185.055 7.5C185.094 7.38281 185.126 7.30469 185.152 7.26562C185.204 7.1875 185.276 7.14193 185.367 7.12891C185.458 7.11589 185.536 7.10938 185.602 7.10938C185.719 7.10938 185.797 7.11589 185.836 7.12891C185.888 7.14193 185.94 7.1875 185.992 7.26562C186.188 7.5651 186.344 7.89714 186.461 8.26172C186.578 8.61328 186.689 8.97786 186.793 9.35547C186.897 9.72005 187.001 10.0846 187.105 10.4492C187.21 10.8138 187.34 11.1523 187.496 11.4648C187.522 11.5299 187.561 11.6081 187.613 11.6992C187.665 11.7773 187.717 11.862 187.77 11.9531C187.822 12.0312 187.867 12.1029 187.906 12.168C187.958 12.2331 187.991 12.2786 188.004 12.3047C188.017 12.3568 188.043 12.4609 188.082 12.6172C188.134 12.7604 188.16 12.8971 188.16 13.0273C188.16 13.1055 188.141 13.1445 188.102 13.1445C187.841 13.1445 187.561 13.0469 187.262 12.8516C186.975 12.6432 186.682 12.4089 186.383 12.1484C186.096 11.875 185.81 11.6081 185.523 11.3477C185.25 11.0742 185.003 10.8659 184.781 10.7227C184.638 10.6315 184.43 10.5534 184.156 10.4883C183.883 10.4102 183.59 10.3451 183.277 10.293C182.965 10.2409 182.665 10.2018 182.379 10.1758C182.092 10.1497 181.871 10.1367 181.715 10.1367H181.344C181.227 10.1367 181.103 10.1432 180.973 10.1562C180.842 10.1693 180.719 10.1953 180.602 10.2344C180.484 10.2734 180.387 10.332 180.309 10.4102C180.23 10.4883 180.191 10.5924 180.191 10.7227V20.957C180.191 21.556 180.172 22.1289 180.133 22.6758C180.107 23.2096 180.094 23.7044 180.094 24.1602C180.094 24.3164 180.094 24.5312 180.094 24.8047C180.107 25.0781 180.12 25.3646 180.133 25.6641C180.146 25.9505 180.159 26.224 180.172 26.4844C180.198 26.7448 180.224 26.9401 180.25 27.0703H182.594C182.789 27.0703 182.978 27.1419 183.16 27.2852C183.342 27.4154 183.434 27.5911 183.434 27.8125C183.434 27.8776 183.421 27.9622 183.395 28.0664C183.368 28.1706 183.316 28.2227 183.238 28.2227H175.895H174.781H174.039C173.896 28.2227 173.811 28.2031 173.785 28.1641C173.772 28.125 173.766 28.0404 173.766 27.9102Z" fill="black"/>
</svg>
