<svg width="64" height="64" viewBox="0 0 64 64" fill="none" xmlns="http://www.w3.org/2000/svg">
<path d="M0 16C0 7.16344 7.16344 0 16 0H48C56.8366 0 64 7.16344 64 16V48C64 56.8366 56.8366 64 48 64H16C7.16344 64 0 56.8366 0 48V16Z" fill="#414141"/>
<path d="M43.1734 20.6127L37.3334 18.666C37.3334 20.0805 36.7715 21.4371 35.7713 22.4373C34.7711 23.4374 33.4145 23.9993 32.0001 23.9993C30.5856 23.9993 29.229 23.4374 28.2288 22.4373C27.2286 21.4371 26.6667 20.0805 26.6667 18.666L20.8267 20.6127C20.2232 20.8137 19.7115 21.2239 19.3839 21.7691C19.0562 22.3144 18.9343 22.9588 19.0401 23.586L19.8134 28.2127C19.8642 28.5259 20.025 28.8107 20.2669 29.016C20.5089 29.2213 20.8161 29.3336 21.1334 29.3327H24.0001V42.666C24.0001 44.1327 25.2001 45.3327 26.6667 45.3327H37.3334C38.0406 45.3327 38.7189 45.0517 39.219 44.5516C39.7191 44.0515 40.0001 43.3733 40.0001 42.666V29.3327H42.8667C43.184 29.3336 43.4913 29.2213 43.7332 29.016C43.9751 28.8107 44.136 28.5259 44.1867 28.2127L44.9601 23.586C45.0658 22.9588 44.9439 22.3144 44.6162 21.7691C44.2886 21.2239 43.7769 20.8137 43.1734 20.6127Z" stroke="white" stroke-width="2.66667" stroke-linecap="round" stroke-linejoin="round"/>
</svg>
