<svg width="40" height="40" viewBox="0 0 40 40" fill="none" xmlns="http://www.w3.org/2000/svg">
<path d="M20 0.5C30.7696 0.5 39.5 9.23045 39.5 20C39.5 30.7696 30.7696 39.5 20 39.5C9.23045 39.5 0.5 30.7696 0.5 20C0.5 9.23045 9.23045 0.5 20 0.5Z" fill="#414141"/>
<path d="M20 0.5C30.7696 0.5 39.5 9.23045 39.5 20C39.5 30.7696 30.7696 39.5 20 39.5C9.23045 39.5 0.5 30.7696 0.5 20C0.5 9.23045 9.23045 0.5 20 0.5Z" stroke="#414141"/>
<path d="M25.8327 27.5V25.8333C25.8327 24.9493 25.4815 24.1014 24.8564 23.4763C24.2312 22.8512 23.3834 22.5 22.4993 22.5H17.4993C16.6153 22.5 15.7674 22.8512 15.1423 23.4763C14.5172 24.1014 14.166 24.9493 14.166 25.8333V27.5" stroke="white" stroke-width="1.66667" stroke-linecap="round" stroke-linejoin="round"/>
<path d="M19.9993 19.1667C21.8403 19.1667 23.3327 17.6743 23.3327 15.8333C23.3327 13.9924 21.8403 12.5 19.9993 12.5C18.1584 12.5 16.666 13.9924 16.666 15.8333C16.666 17.6743 18.1584 19.1667 19.9993 19.1667Z" stroke="white" stroke-width="1.66667" stroke-linecap="round" stroke-linejoin="round"/>
</svg>
