<svg width="69" height="34" viewBox="0 0 69 34" fill="none" xmlns="http://www.w3.org/2000/svg">
<path d="M0 17C0 7.61116 7.61116 0 17 0H52C61.3888 0 69 7.61116 69 17V17C69 26.3888 61.3888 34 52 34H17C7.61116 34 0 26.3888 0 17V17Z" fill="#414141"/>
<path d="M22.3181 17.5938L23.3281 23.2778C23.3394 23.3447 23.33 23.4135 23.3012 23.4749C23.2723 23.5364 23.2254 23.5875 23.1667 23.6216C23.108 23.6557 23.0403 23.671 22.9726 23.6656C22.905 23.6601 22.8406 23.6341 22.7881 23.5911L20.4014 21.7997C20.2862 21.7137 20.1462 21.6672 20.0024 21.6672C19.8586 21.6672 19.7186 21.7137 19.6034 21.7997L17.2127 23.5904C17.1603 23.6334 17.096 23.6593 17.0284 23.6648C16.9608 23.6702 16.8932 23.655 16.8345 23.621C16.7758 23.587 16.7289 23.536 16.7 23.4746C16.6711 23.4133 16.6616 23.3446 16.6727 23.2778L17.6821 17.5938" stroke="white" stroke-width="1.33333" stroke-linecap="round" stroke-linejoin="round"/>
<path d="M20 18.334C22.2091 18.334 24 16.5431 24 14.334C24 12.1248 22.2091 10.334 20 10.334C17.7909 10.334 16 12.1248 16 14.334C16 16.5431 17.7909 18.334 20 18.334Z" stroke="white" stroke-width="1.33333" stroke-linecap="round" stroke-linejoin="round"/>
<path d="M37.684 18.514H39.14V23.176H37.684V18.514ZM32.644 18.066H44.208V19.27H32.644V18.066ZM37.684 12.606H38.972V12.914C38.972 13.3527 38.888 13.768 38.72 14.16C38.5613 14.552 38.328 14.9207 38.02 15.266C37.7213 15.602 37.3573 15.9053 36.928 16.176C36.4987 16.4373 36.0227 16.6613 35.5 16.848C34.9773 17.0253 34.4173 17.1513 33.82 17.226L33.302 16.064C33.8153 15.9987 34.296 15.896 34.744 15.756C35.192 15.616 35.5933 15.4433 35.948 15.238C36.312 15.0233 36.62 14.7947 36.872 14.552C37.1333 14.3 37.334 14.0387 37.474 13.768C37.614 13.488 37.684 13.2033 37.684 12.914V12.606ZM37.866 12.606H39.154V12.914C39.154 13.194 39.224 13.474 39.364 13.754C39.504 14.0247 39.7 14.286 39.952 14.538C40.2133 14.79 40.5213 15.0187 40.876 15.224C41.24 15.4293 41.6413 15.6067 42.08 15.756C42.528 15.896 43.0087 15.9987 43.522 16.064L43.004 17.226C42.4067 17.1513 41.8467 17.0253 41.324 16.848C40.8013 16.6613 40.3253 16.4327 39.896 16.162C39.476 15.8913 39.112 15.588 38.804 15.252C38.5053 14.9067 38.272 14.538 38.104 14.146C37.9453 13.754 37.866 13.3433 37.866 12.914V12.606ZM33.736 11.878H43.116V13.054H33.736V11.878ZM37.684 10.38H39.14V12.284H37.684V10.38ZM48.4245 12.816H49.6145V13.39C49.6145 14.1553 49.4745 14.874 49.1945 15.546C48.9238 16.218 48.5225 16.806 47.9905 17.31C47.4678 17.8047 46.8285 18.1827 46.0725 18.444L45.3445 17.296C46.0072 17.072 46.5672 16.764 47.0245 16.372C47.4818 15.9707 47.8272 15.5133 48.0605 15C48.3032 14.4867 48.4245 13.95 48.4245 13.39V12.816ZM48.6765 12.816H49.8805V13.39C49.8805 13.9127 50.0018 14.4167 50.2445 14.902C50.4872 15.3873 50.8372 15.8213 51.2945 16.204C51.7612 16.5773 52.3212 16.862 52.9745 17.058L52.2745 18.22C51.5185 17.9773 50.8698 17.618 50.3285 17.142C49.7965 16.666 49.3858 16.106 49.0965 15.462C48.8165 14.818 48.6765 14.1273 48.6765 13.39V12.816ZM45.7225 11.99H52.5685V13.152H45.7225V11.99ZM48.4245 10.45H49.8805V12.424H48.4245V10.45ZM52.1485 14.202H55.2705V15.406H52.1485V14.202ZM54.5005 10.366H55.9705V19.872H54.5005V10.366ZM47.6825 21.706H56.3065V22.896H47.6825V21.706ZM47.6825 19.06H49.1525V22.434H47.6825V19.06Z" fill="white"/>
</svg>
