<svg width="104" height="104" viewBox="0 0 104 104" fill="none" xmlns="http://www.w3.org/2000/svg">
<g filter="url(#filter0_dd_143_14780)">
<path d="M12 42C12 19.9086 29.9086 2 52 2C74.0914 2 92 19.9086 92 42C92 64.0914 74.0914 82 52 82C29.9086 82 12 64.0914 12 42Z" fill="#414141" shape-rendering="crispEdges"/>
<path d="M57.7946 43.4834L60.3196 57.6934C60.3479 57.8607 60.3244 58.0327 60.2523 58.1863C60.1802 58.3399 60.0629 58.4679 59.9161 58.5531C59.7694 58.6382 59.6001 58.6766 59.4309 58.6629C59.2618 58.6493 59.1008 58.5843 58.9696 58.4767L53.0029 53.9984C52.7149 53.7832 52.365 53.6669 52.0054 53.6669C51.6459 53.6669 51.296 53.7832 51.0079 53.9984L45.0313 58.4751C44.9001 58.5825 44.7394 58.6473 44.5704 58.661C44.4015 58.6746 44.2324 58.6364 44.0857 58.5515C43.939 58.4666 43.8217 58.3389 43.7495 58.1856C43.6772 58.0323 43.6534 57.8606 43.6813 57.6934L46.2046 43.4834" stroke="white" stroke-width="3.33333" stroke-linecap="round" stroke-linejoin="round"/>
<path d="M52 45.333C57.5228 45.333 62 40.8559 62 35.333C62 29.8102 57.5228 25.333 52 25.333C46.4772 25.333 42 29.8102 42 35.333C42 40.8559 46.4772 45.333 52 45.333Z" stroke="white" stroke-width="3.33333" stroke-linecap="round" stroke-linejoin="round"/>
</g>
<defs>
<filter id="filter0_dd_143_14780" x="0" y="0" width="104" height="104" filterUnits="userSpaceOnUse" color-interpolation-filters="sRGB">
<feFlood flood-opacity="0" result="BackgroundImageFix"/>
<feColorMatrix in="SourceAlpha" type="matrix" values="0 0 0 0 0 0 0 0 0 0 0 0 0 0 0 0 0 0 127 0" result="hardAlpha"/>
<feMorphology radius="4" operator="erode" in="SourceAlpha" result="effect1_dropShadow_143_14780"/>
<feOffset dy="4"/>
<feGaussianBlur stdDeviation="3"/>
<feComposite in2="hardAlpha" operator="out"/>
<feColorMatrix type="matrix" values="0 0 0 0 0 0 0 0 0 0 0 0 0 0 0 0 0 0 0.1 0"/>
<feBlend mode="normal" in2="BackgroundImageFix" result="effect1_dropShadow_143_14780"/>
<feColorMatrix in="SourceAlpha" type="matrix" values="0 0 0 0 0 0 0 0 0 0 0 0 0 0 0 0 0 0 127 0" result="hardAlpha"/>
<feMorphology radius="3" operator="erode" in="SourceAlpha" result="effect2_dropShadow_143_14780"/>
<feOffset dy="10"/>
<feGaussianBlur stdDeviation="7.5"/>
<feComposite in2="hardAlpha" operator="out"/>
<feColorMatrix type="matrix" values="0 0 0 0 0 0 0 0 0 0 0 0 0 0 0 0 0 0 0.1 0"/>
<feBlend mode="normal" in2="effect1_dropShadow_143_14780" result="effect2_dropShadow_143_14780"/>
<feBlend mode="normal" in="SourceGraphic" in2="effect2_dropShadow_143_14780" result="shape"/>
</filter>
</defs>
</svg>
