<svg width="64" height="64" viewBox="0 0 64 64" fill="none" xmlns="http://www.w3.org/2000/svg">
<path d="M0 32C0 14.3269 14.3269 0 32 0C49.6731 0 64 14.3269 64 32C64 49.6731 49.6731 64 32 64C14.3269 64 0 49.6731 0 32Z" fill="#414141"/>
<path d="M29.2496 36.6663C29.1305 36.2049 28.89 35.7838 28.5531 35.4469C28.2161 35.1099 27.795 34.8694 27.3336 34.7503L19.1536 32.641C19.014 32.6014 18.8912 32.5173 18.8037 32.4016C18.7163 32.2859 18.6689 32.1448 18.6689 31.9997C18.6689 31.8546 18.7163 31.7135 18.8037 31.5978C18.8912 31.482 19.014 31.398 19.1536 31.3583L27.3336 29.2477C27.7948 29.1288 28.2158 28.8884 28.5528 28.5517C28.8897 28.215 29.1303 27.7942 29.2496 27.333L31.3589 19.153C31.3981 19.0129 31.4821 18.8895 31.598 18.8015C31.7139 18.7136 31.8554 18.666 32.0009 18.666C32.1464 18.666 32.2879 18.7136 32.4038 18.8015C32.5197 18.8895 32.6037 19.0129 32.6429 19.153L34.7509 27.333C34.8699 27.7944 35.1105 28.2155 35.4474 28.5525C35.7844 28.8895 36.2055 29.13 36.6669 29.249L44.8469 31.357C44.9876 31.3958 45.1116 31.4797 45.2 31.5958C45.2884 31.7119 45.3363 31.8538 45.3363 31.9997C45.3363 32.1456 45.2884 32.2875 45.2 32.4036C45.1116 32.5197 44.9876 32.6035 44.8469 32.6423L36.6669 34.7503C36.2055 34.8694 35.7844 35.1099 35.4474 35.4469C35.1105 35.7838 34.8699 36.2049 34.7509 36.6663L32.6416 44.8463C32.6024 44.9865 32.5184 45.1099 32.4025 45.1978C32.2866 45.2858 32.1451 45.3333 31.9996 45.3333C31.8541 45.3333 31.7126 45.2858 31.5967 45.1978C31.4808 45.1099 31.3968 44.9865 31.3576 44.8463L29.2496 36.6663Z" stroke="white" stroke-width="2.66667" stroke-linecap="round" stroke-linejoin="round"/>
<path d="M42.667 20V25.3333" stroke="white" stroke-width="2.66667" stroke-linecap="round" stroke-linejoin="round"/>
<path d="M45.3333 22.667H40" stroke="white" stroke-width="2.66667" stroke-linecap="round" stroke-linejoin="round"/>
<path d="M21.333 38.667V41.3337" stroke="white" stroke-width="2.66667" stroke-linecap="round" stroke-linejoin="round"/>
<path d="M22.6667 40H20" stroke="white" stroke-width="2.66667" stroke-linecap="round" stroke-linejoin="round"/>
</svg>
