<svg width="80" height="80" viewBox="0 0 80 80" fill="none" xmlns="http://www.w3.org/2000/svg">
<path d="M0 16C0 7.16344 7.16344 0 16 0H64C72.8366 0 80 7.16344 80 16V64C80 72.8366 72.8366 80 64 80H16C7.16344 80 0 72.8366 0 64V16Z" fill="#DDDDDD"/>
<path d="M55 45V51.6667C55 52.5507 54.6488 53.3986 54.0237 54.0237C53.3986 54.6488 52.5507 55 51.6667 55H28.3333C27.4493 55 26.6014 54.6488 25.9763 54.0237C25.3512 53.3986 25 52.5507 25 51.6667V45" stroke="#99A1AF" stroke-width="3.33333" stroke-linecap="round" stroke-linejoin="round"/>
<path d="M48.3337 33.3333L40.0003 25L31.667 33.3333" stroke="#99A1AF" stroke-width="3.33333" stroke-linecap="round" stroke-linejoin="round"/>
<path d="M40 25V45" stroke="#99A1AF" stroke-width="3.33333" stroke-linecap="round" stroke-linejoin="round"/>
</svg>
